<svg width="15" height="24" viewBox="0 0 15 24" fill="none" xmlns="http://www.w3.org/2000/svg">
<path d="M14.3511 12.8896C14.0118 12.2055 13.0544 11.6295 11.7819 12.6016C10.0489 13.9697 7.28571 13.9697 7.28571 13.9697C7.28571 13.9697 4.52256 13.9697 2.78953 12.6016C1.51703 11.6295 0.559622 12.2055 0.220288 12.8896C-0.385666 14.0898 0.293003 14.6778 1.83213 15.65C3.15311 16.4901 4.95885 16.8021 6.12228 16.9221L5.15275 17.8822C3.77118 19.2384 2.43808 20.5466 1.52915 21.4587C0.98379 22.0107 0.98379 22.8869 1.52915 23.4029L1.69882 23.5949C2.24417 24.135 3.14099 24.135 3.68635 23.5949L7.28571 20.0185C8.67941 21.3747 10.0004 22.6828 10.9214 23.5949C11.4668 24.135 12.3515 24.135 12.909 23.5949L13.0665 23.4029C13.624 22.8869 13.624 22.0107 13.0665 21.4587L9.45503 17.8822L8.49762 16.9101C9.64894 16.8021 11.4304 16.4781 12.7393 15.65C14.2784 14.6778 14.9571 14.0898 14.3511 12.8896ZM7.28571 3.08439C8.95815 3.08439 10.3155 4.42855 10.3155 6.07276C10.3155 7.72897 8.95815 9.06113 7.28571 9.06113C5.61328 9.06113 4.25594 7.72897 4.25594 6.07276C4.25594 4.42855 5.61328 3.08439 7.28571 3.08439ZM7.28571 12.1455C10.6791 12.1455 13.418 9.43318 13.418 6.07276C13.418 4.46216 12.7719 2.91753 11.6219 1.77867C10.4719 0.639807 8.91209 0 7.28571 0C5.65934 0 4.09958 0.639807 2.94955 1.77867C1.79953 2.91753 1.15346 4.46216 1.15346 6.07276C1.15346 9.43318 3.89237 12.1455 7.28571 12.1455Z" fill="#35B44A"/>
</svg>
