<svg width="24" height="14" viewBox="0 0 24 14" fill="none" xmlns="http://www.w3.org/2000/svg">
<path d="M23.0345 13.9989H20.4078C19.414 13.9989 19.1146 13.2085 17.3331 11.4581C15.7762 9.98477 15.1187 9.80159 14.7249 9.80159C14.1802 9.80159 14.0316 9.94859 14.0316 10.6847V13.005C14.0316 13.6325 13.8244 14 12.1546 14C10.5347 13.8931 8.96385 13.4099 7.5714 12.5902C6.17896 11.7704 5.00478 10.6375 4.14558 9.28485C2.10548 6.79161 0.685987 3.86534 0 0.738772C0 0.352061 0.149702 0.00153418 0.900512 0.00153418H3.52605C4.20085 0.00153418 4.44383 0.296656 4.70869 0.978487C5.98345 4.66241 8.15873 7.86691 9.04197 7.86691C9.38053 7.86691 9.52793 7.71991 9.52793 6.89109V3.09635C9.41623 1.3652 8.48001 1.21933 8.48001 0.592907C8.49186 0.427641 8.56885 0.273417 8.69463 0.162995C8.82042 0.0525729 8.98509 -0.00534836 9.15367 0.00153418H13.2808C13.8451 0.00153418 14.0316 0.277433 14.0316 0.940042V6.06226C14.0316 6.61519 14.2735 6.79837 14.4439 6.79837C14.7824 6.79837 15.0427 6.61519 15.6634 6.00685C16.9938 4.41364 18.0808 2.63859 18.89 0.737641C18.9729 0.509406 19.1294 0.31404 19.3359 0.18134C19.5424 0.0486402 19.7874 -0.0141087 20.0335 0.00266483H22.6602C23.4479 0.00266483 23.6148 0.389376 23.4479 0.941173C22.4925 3.04254 21.3104 5.03725 19.9218 6.89109C19.6385 7.31511 19.5257 7.5356 19.9218 8.03312C20.1821 8.41984 21.1033 9.17517 21.7217 9.89318C22.6222 10.7752 23.3696 11.7951 23.935 12.9122C24.1607 13.6314 23.7841 13.9989 23.0345 13.9989Z" fill="#35B44A"/>
</svg>
