<svg id="cow" xmlns="http://www.w3.org/2000/svg" viewBox="0 0 240 193.53"><defs><style>.cls-1{opacity:0.4;}.cls-2,.cls-6{fill:none;}.cls-2,.cls-23,.cls-6{stroke:#3d1c0e;stroke-miterlimit:10;}.cls-2{stroke-width:3px;}.cls-3{fill:#ebeaef;}.cls-4{fill:#c2c8c8;}.cls-5{fill:#a5aaaa;}.cls-7{fill:#31302b;}.cls-8{fill:#fcffff;}.cls-9{fill:#fefefd;}.cls-10{fill:#898c86;}.cls-11{fill:#ffffd3;}.cls-12{fill:#46443e;}.cls-13{fill:#e3cf86;}.cls-14{fill:#ff8585;}.cls-15{fill:#61635e;}.cls-16{fill:#9a0909;}.cls-17{fill:#e41515;}.cls-18{fill:#f6f8f8;}.cls-19{fill:#464540;}.cls-20{fill:#32312c;}.cls-21{fill:#5e605b;}.cls-22{fill:#3d1c0e;}.cls-23,.cls-25{fill:#e7616e;}.cls-24{fill:#ff9ea9;}.cls-26{fill:#ff818d;}.cls-27{fill:#e41414;}.cls-28{fill:#9d0a0a;}.cls-29{fill:#ff8484;}.cls-30{fill:#e8616f;}.cls-31{fill:#afb9c9;}.cls-32{fill:#8790a0;}.cls-33{fill:#c48748;}.cls-34{fill:#fab956;}.cls-35{fill:#565d6c;}</style></defs><path class="cls-1" d="M552.65,1026.12a18.92,18.92,0,0,0-2.52.18c-4.6-7.57-15-12.86-27.12-12.86-12.33,0-22.9,5.48-27.37,13.27-4-2.56-10-4.19-16.72-4.19a38.65,38.65,0,0,0-7.13.65c-11.56-6.71-33.25-11.24-58.13-11.24-37,0-67,10-67,22.33s30,22.32,67,22.32c24.88,0,46.57-4.52,58.13-11.23a38.65,38.65,0,0,0,7.13.65c6.38,0,12.13-1.48,16.12-3.83,4.06,8.4,15,14.41,28,14.41,10.52,0,19.75-4,25-10a18.35,18.35,0,0,0,4.63.59c7.8,0,14.12-4.71,14.12-10.52S560.45,1026.12,552.65,1026.12Z" transform="translate(-341.32 -863.05)"/><path class="cls-2" d="M377.6,1004.94a12.21,12.21,0,0,1-4.25.65,6.13,6.13,0,0,1-.74-.05l-.09,0c-.22,0-.45-.06-.67-.11l-.18,0a5.54,5.54,0,0,1-.58-.17l-.26-.1-.5-.22a2.69,2.69,0,0,1-.32-.19l-.4-.25c-.13-.09-.25-.2-.37-.3a4,4,0,0,1-.32-.28,4.31,4.31,0,0,1-.39-.46,3,3,0,0,1-.23-.27,5.64,5.64,0,0,1-.54-.9c-2.71-5.41.94-10.29,3-14.93,2.44-5.55,5.58-19.4-8.73-25.7l0-.35v-.07c0-.25-.07-.51-.12-.76v0a6,6,0,0,0-1-2.31l-.14-.19-.23-.26-.25-.24-.2-.19a4.91,4.91,0,0,0-.51-.39l-.2-.12a5,5,0,0,0-.46-.25l-.21-.11c-.23-.1-.48-.2-.74-.29-4.72-1.54-12-.62-14.12,9.31l0,0,.08-.08h0l.14-.12,0,0,.18-.14,0,0,.21-.17.06,0,.25-.18.06,0,.29-.2.05,0,.33-.21h0c.15-.1.31-.19.47-.28l.11-.06.39-.21.17-.08.36-.16.2-.08.34-.12.22-.07.33-.08.23,0,.33,0h.22l.36,0h.17a3,3,0,0,1,.52.13c1.82.67.78,2.81,1.46,4.47v0l0,0a2.55,2.55,0,0,0,1,1.17l.08,0,.05,0a5.29,5.29,0,0,0,2.89.8,5.47,5.47,0,0,0,2.79-.57,3.22,3.22,0,0,0,.37-.2h0a6.16,6.16,0,0,0,1.55-1.4c.73.25,6.06,2.29,6.61,9.74.59,8-5.91,12-5.56,21.61.3,8.17,7.06,15.71,18.5,11.56C391.74,1005.87,377.6,1004.94,377.6,1004.94Z" transform="translate(-341.32 -863.05)"/><path class="cls-3" d="M351.92,961.41c1.35.47,2.23,3.65,4.47,2.35,2-1.15,1.57-5,4.87-5a5.68,5.68,0,0,0-3.4-2.75c-4.72-1.54-12-.62-14.12,9.31a13.63,13.63,0,0,1,1.76-1.3C346.57,962.28,348.59,960.25,351.92,961.41Z" transform="translate(-341.32 -863.05)"/><path class="cls-4" d="M356.39,963.76c-2.24,1.3-3.12-1.88-4.47-2.35-3.33-1.16-5.35.87-6.42,2.61,1.28-.81,3-1.6,4.42-1.08,2.51.92-.44,4.63,3.22,6s6.79,0,8.38-4.1a7.83,7.83,0,0,0-.26-6.12C358,958.79,358.37,962.61,356.39,963.76Z" transform="translate(-341.32 -863.05)"/><path class="cls-5" d="M351.07,963.91s1.2,2.73,3.67,3,3.74-2.44,4.94-3.12.77,2.56.77,2.56a4.16,4.16,0,0,1-1.85,2.41c-1.56,1-5.75,1.42-7.22-1.3l-.31-3.29" transform="translate(-341.32 -863.05)"/><path class="cls-6" d="M361.52,964.88c.9-2.32,1.06-7.33-3.66-8.87s-12-.62-14.12,9.31c0,0,3.66-3.31,6.18-2.38s-.44,4.63,3.22,6S359.93,969,361.52,964.88Z" transform="translate(-341.32 -863.05)"/><path class="cls-4" d="M377.6,1004.94a12.21,12.21,0,0,1-4.25.65c-.42,1.38-1.54,2.29-4.2,1.11-6-2.64-5.73-10.32-3.35-15.88s5-10.15,3.35-17.74c-1.16-5.26-6.1-8.33-9-9.72a3.81,3.81,0,0,0-.06,3.93s6.11,1.77,6.7,9.77-5.91,12-5.56,21.61c.3,8.17,7.06,15.71,18.5,11.56C391.74,1005.87,377.6,1004.94,377.6,1004.94Z" transform="translate(-341.32 -863.05)"/><path class="cls-3" d="M369.15,973.08c1.68,7.59-1,12.18-3.35,17.74s-2.65,13.24,3.35,15.88c2.66,1.18,3.78.27,4.2-1.11a6.06,6.06,0,0,1-5.59-3.37c-2.71-5.41.94-10.29,3-14.93,2.47-5.61,5.65-19.68-9.14-25.88a8.23,8.23,0,0,0-1.47,2C363.05,964.75,368,967.82,369.15,973.08Z" transform="translate(-341.32 -863.05)"/><path class="cls-6" d="M377.6,1004.94s-7.14,2.69-9.84-2.72.94-10.29,3-14.93c2.47-5.61,5.65-19.68-9.14-25.88,0,0-3.3,3.06-1.53,5.88,0,0,6.11,1.77,6.7,9.77s-5.91,12-5.56,21.61c.3,8.17,7.06,15.71,18.5,11.56C391.74,1005.87,377.6,1004.94,377.6,1004.94Z" transform="translate(-341.32 -863.05)"/><path class="cls-2" d="M437,888.58a26.7,26.7,0,0,0-2.47-12.35c-3.53-8-9.42-10.82-9.42-10.82s-.11,6.35-2.7,10.59c0,0-.94-3.77-7.41-4.94s-12.94,3.76-15.41,6.11-4.48,4.94-6.36,5.65-4.7.24-7.88,2.82-7.18,8.71-7.18,8.71-5.53-4.82-7.41-7.41-4.7-6.24-4.7-6.24a25.41,25.41,0,0,0-3.3,10.47c-.23,5.41.94,10.59,3.65,17.18a25.25,25.25,0,0,1-4.69,8.71c-3.31,3.76-5.78,6.82-6,11.88s2.24,8.47,7.3,9.88,8.59,1.29,11.76,0,3.88-3.41,3.88-3.41-.35,4,5.65,6.94c0,0-5.94-.3-8.41,2.94A29.48,29.48,0,0,0,369.68,960c-.79,6.73.71,11.67,1.59,15s1,6.08,2.56,7.32a16.93,16.93,0,0,0,5,3s-4.15,6.93-4.1,14.16a21.19,21.19,0,0,0,3.6,11.9,172.19,172.19,0,0,0-2.88,24.47,22.29,22.29,0,0,0,11.76,4.94c7.3.82,12.71.12,13.88-.82s4.48-7.89,6.83-13.18,3.53-8.12,3.53-8.12a37.12,37.12,0,0,0,9.53-.47s6.76,12.41,14.23,21.12a45.61,45.61,0,0,0,22.12-.29s3.18-17.06,0-30.36a58.93,58.93,0,0,0-10.59-22.12s3.3-15.29.83-25.76a44.19,44.19,0,0,0,24.26-1.32s1.76,6.35,3.71,6.79,6.17-2.29,8-4.59c0,0,4.14,5.21,7.23,5.21s9.09-3.62,9.09-3.62,5,1.06,8.65-5.82,4.08-19.47-6.74-22.77-14.94,2.71-14.94,2.71a22.75,22.75,0,0,0-6-4.59c-2.94-1.29-7.06,7.06-7.06,7.06a112.7,112.7,0,0,0-26.23-11.27s2.2-8-.71-12.88c0,0,6.79-.53,8.38-5.38s1.15-12-1.67-15.71S440.07,888.64,437,888.58Z" transform="translate(-341.32 -863.05)"/><path class="cls-7" d="M379.92,920.06c-.78-4.63-1.28-6.43-2.29-7.5a18.34,18.34,0,0,0-2.3,6.08c-.79,4.42-1.85,9.8-4.76,13.59a40.84,40.84,0,0,0-4.63,7.26,15.32,15.32,0,0,0,8.83-.67c3.18-1.29,3.88-3.41,3.88-3.41v.11C379.39,932.32,380.78,925.18,379.92,920.06Z" transform="translate(-341.32 -863.05)"/><path class="cls-8" d="M377.75,899.88a12.17,12.17,0,0,0,1.32.47,27.6,27.6,0,0,1,2.65-4.86h0l0-6c-2,2.46-3.58,4.9-3.58,4.9l-.2-.18A24.7,24.7,0,0,0,377.75,899.88Z" transform="translate(-341.32 -863.05)"/><path class="cls-9" d="M434.54,876.23c-3.53-8-9.42-10.82-9.42-10.82s-.11,6.35-2.7,10.59a2.25,2.25,0,0,0-.12-.34,39.85,39.85,0,0,1-.06,4.63,6.31,6.31,0,0,1-.41,2,3.74,3.74,0,0,0-.27.78,14.81,14.81,0,0,0,1.71-1.19,8.66,8.66,0,0,0,3.1-4.27,16.15,16.15,0,0,0,.62-6.22,42.12,42.12,0,0,1,7.23,8.64A30.77,30.77,0,0,1,437,885.5,29.62,29.62,0,0,0,434.54,876.23Z" transform="translate(-341.32 -863.05)"/><path class="cls-10" d="M381.72,895.49a16.56,16.56,0,0,1,6-5.68c5.65-2.75,6.71-1.87,7.53-2.58s9.18-9.88,17.3-10.17c6.39-.24,8.87,2.19,9.64,3.23a39.85,39.85,0,0,0,.06-4.63c-.4-.94-2-3.64-7.29-4.6-6.47-1.18-12.94,3.76-15.41,6.11s-4.48,4.94-6.36,5.65-4.7.24-7.88,2.82a27.72,27.72,0,0,0-3.6,3.81l0,6Z" transform="translate(-341.32 -863.05)"/><path class="cls-11" d="M369,904.94c3.47,1.47,5.17-.12,6.41-1.88a4.12,4.12,0,0,1,3.47-1.61c-.45-.55-.88-.84-1.06-1.45,0,0,0-.08,0-.12-6.73-2.74-11.7-10.78-13.75-14.62a20.73,20.73,0,0,0-1.23,5.91c0,.35,0,.7,0,1C364,896.54,366.52,903.91,369,904.94Z" transform="translate(-341.32 -863.05)"/><path class="cls-12" d="M375.33,918.64a18.34,18.34,0,0,1,2.3-6.08,6.34,6.34,0,0,0-1.86-1.24l-.39-.21a6.08,6.08,0,0,1-3.49,1.3,7.22,7.22,0,0,1-2.81-1.19c-.19,2.16-.72,7.42-1.69,10-1.24,3.27-4.41,4.77-8.29,9.44a5.4,5.4,0,0,0-1.16,5.29,10.56,10.56,0,0,0,5.07,2.89c1,.29,2,.5,2.93.67a40.84,40.84,0,0,1,4.63-7.26C373.48,928.44,374.54,923.06,375.33,918.64Z" transform="translate(-341.32 -863.05)"/><path class="cls-10" d="M359.1,930.64c3.88-4.67,7-6.17,8.29-9.44,1-2.56,1.5-7.82,1.69-10A23,23,0,0,1,366.2,909a25,25,0,0,1-4.47,8c-3.31,3.76-5.78,6.82-6,11.88a9.3,9.3,0,0,0,2.23,7A5.4,5.4,0,0,1,359.1,930.64Z" transform="translate(-341.32 -863.05)"/><path class="cls-13" d="M380,904.53a5.65,5.65,0,0,0-1.12-3.08,4.12,4.12,0,0,0-3.47,1.61c-1.24,1.76-2.94,3.35-6.41,1.88-2.43-1-4.92-8.4-6.19-12.73-.05,5,1.1,9.86,3.57,15.92l.09.22s-.07.25-.22.68a23,23,0,0,0,2.88,2.19,7.22,7.22,0,0,0,2.81,1.19,6.08,6.08,0,0,0,3.49-1.3C377.8,909.5,380.22,906.71,380,904.53Z" transform="translate(-341.32 -863.05)"/><path class="cls-13" d="M437,888.58a17.83,17.83,0,0,0-.05-3.08,30.77,30.77,0,0,0-2.74-5.51,62,62,0,0,1-.08,6.89c-.31,3.48-1.5,3.62-3,1.68s-2.3-.62-5.61-2.34a4.63,4.63,0,0,1-2.22-4.38,14.81,14.81,0,0,1-1.71,1.19,7.49,7.49,0,0,0-.05,3,4,4,0,0,0,2.09,3.23c.16.06.34.1.51.15,2.15.63,4.41.16,5.35,1.3s1.49,4.63,3.59,4.8h.24a3.2,3.2,0,0,0,1.18-.29,3.77,3.77,0,0,0,1.64-1.42,5.37,5.37,0,0,0,.85-2.48c.08-1,.09-2,.1-2.7Z" transform="translate(-341.32 -863.05)"/><path class="cls-9" d="M377.75,899.88a24.7,24.7,0,0,1,.23-5.71c-1-.89-5.54-4.94-7.21-7.23-1.88-2.59-4.7-6.24-4.7-6.24a27.3,27.3,0,0,0-2.07,4.56C366.05,889.1,371,897.14,377.75,899.88Z" transform="translate(-341.32 -863.05)"/><path class="cls-11" d="M425.49,886.22c3.31,1.72,4.06.39,5.61,2.34s2.73,1.8,3-1.68a62,62,0,0,0,.08-6.89,42.12,42.12,0,0,0-7.23-8.64,16.15,16.15,0,0,1-.62,6.22,8.66,8.66,0,0,1-3.1,4.27A4.63,4.63,0,0,0,425.49,886.22Z" transform="translate(-341.32 -863.05)"/><path class="cls-8" d="M448.48,938.06c1.59,1.14,10.14,2.73,13.5,4.41,2.15,1.07,7.1,3,10.37,4.22.07-.51.14-1,.22-1.52l-1,.83,1-.83c.33-2.13.74-4.11,1-5.43a114,114,0,0,0-25.31-10.92C447.93,931.35,447.24,937.16,448.48,938.06Z" transform="translate(-341.32 -863.05)"/><path class="cls-12" d="M417.15,887.19a8.19,8.19,0,0,1,4.36-1.2,7.49,7.49,0,0,1,.05-3c-.45.27-.74.41-.74.41s.29-.14.74-.41a3.74,3.74,0,0,1,.27-.78,6.31,6.31,0,0,0,.41-2c-.77-1-3.25-3.47-9.64-3.23-8.12.29-16.48,9.47-17.3,10.17s-1.88-.17-7.53,2.58a16.56,16.56,0,0,0-6,5.68s2,6.86,11.82,7.15,16.75-9.31,17-9.63c-3.64-2.88-7.93-6.18-7.93-6.18C410.62,890.14,414,889.08,417.15,887.19Z" transform="translate(-341.32 -863.05)"/><path class="cls-14" d="M477.83,940.82c.94-.65,2.71,1.12,4.53.53,1.11-.36,2.21-3.27,2.91-5.5a17.93,17.93,0,0,0-4.38-3c-2.94-1.29-7.06,7.06-7.06,7.06l-.22-.14c-.3,1.32-.71,3.3-1,5.43C474.14,943.83,477.14,941.29,477.83,940.82Z" transform="translate(-341.32 -863.05)"/><path class="cls-15" d="M436.11,893.77a23.31,23.31,0,0,0,4.49,2.82,11.7,11.7,0,0,1-1.48-7.79,16.58,16.58,0,0,0-2.06-.21c0,.71,0,1.71-.1,2.7A5.37,5.37,0,0,1,436.11,893.77Z" transform="translate(-341.32 -863.05)"/><path class="cls-14" d="M484.54,943.76c.47.94,6.41-2.29,10.47-2.59a6.85,6.85,0,0,1,5,1.56c1.35-.52,6-2.3,7.62-4.43a12.4,12.4,0,0,0-5.8-3.6c-10.82-3.29-14.94,2.71-14.94,2.71s.18.28,0,.06C485.74,940.16,484.25,943.19,484.54,943.76Z" transform="translate(-341.32 -863.05)"/><path class="cls-10" d="M440.6,896.59a15.88,15.88,0,0,0,2.36.88c3.66,1,10.84,2.23,13.2,7.53.14-3.83-.67-7.85-2.56-10.36-2.36-3.12-10.17-5.2-14.48-5.84A11.7,11.7,0,0,0,440.6,896.59Z" transform="translate(-341.32 -863.05)"/><path class="cls-7" d="M421.51,886a8.19,8.19,0,0,0-4.36,1.2c-3.13,1.89-6.53,2.95-14.55-.36,0,0,4.29,3.3,7.93,6.18h0a8.19,8.19,0,0,0,9.35,1.06c3.13-1.67,4-3.48,4.22-4.69-.17,0-.35-.09-.51-.15A4,4,0,0,1,421.51,886Z" transform="translate(-341.32 -863.05)"/><path class="cls-12" d="M443,897.47a15.88,15.88,0,0,1-2.36-.88,23.31,23.31,0,0,1-4.49-2.82,3.77,3.77,0,0,1-1.64,1.42,20.59,20.59,0,0,0,6.36,7.45c4.94,3.47,6.47,2.18,9.18,5.18a10.82,10.82,0,0,0,5.1,2.92c.05-.13.12-.25.16-.39a19.57,19.57,0,0,0,.89-5.35C453.8,899.7,446.62,898.46,443,897.47Z" transform="translate(-341.32 -863.05)"/><path class="cls-7" d="M450,907.82c-2.71-3-4.24-1.71-9.18-5.18a20.59,20.59,0,0,1-6.36-7.45,3.2,3.2,0,0,1-1.18.29h-.24c.35,1.67,1.25,5,3,6.94a83.85,83.85,0,0,1,7.15,8.07c1.19,1.66,1.44,3.4,3.07,5.31,1.08-.13,7.17-1,8.81-5A10.82,10.82,0,0,1,450,907.82Z" transform="translate(-341.32 -863.05)"/><path class="cls-3" d="M457.42,948.47c5.81.13,11.85.83,14.65,1.19.05-.95.15-2,.28-3-3.27-1.23-8.22-3.15-10.37-4.22-3.36-1.68-11.91-3.27-13.5-4.41-1.24-.9-.55-6.71-.18-9.24l-.7-.21s2.2-8-.71-12.88c0,0-.78-.18-.66-.2-.89-1.59-1.33-3.64-2.52-5.3-2.06-2.88-5.2-5.22-7.63-7.82-1.78-1.91-2.68-5.27-3-6.94-2.1-.17-2.61-3.61-3.59-4.8s-3.2-.67-5.35-1.3c-.21,1.21-1.09,3-4.22,4.69a8.19,8.19,0,0,1-9.35-1.06h0c-.24.32-7.34,9.92-17,9.63s-11.8-7.1-11.82-7.15a27.6,27.6,0,0,0-2.65,4.86,12.17,12.17,0,0,1-1.32-.47s0,.08,0,.12c.18.61.61.9,1.06,1.45a5.65,5.65,0,0,1,1.12,3.08c.27,2.18-2.15,5-4.57,6.58l.39.21a6.34,6.34,0,0,1,1.86,1.24c1,1.07,1.51,2.87,2.29,7.5.86,5.12-.53,12.26-1.27,15.46,0,.55.17,3.34,3.91,5.83a34.35,34.35,0,0,1,9.5,4.53,8.11,8.11,0,0,0-7.05,0c-3.43,1.66-11.87,9-15.53,17.58A40.88,40.88,0,0,0,371.27,975c.81,3.07,1,5.61,2.21,7,.09-1,.24-2.41.48-3.88a13.48,13.48,0,0,1-2.84-6.36A25.3,25.3,0,0,1,371.4,961c1.49-4.62,5-5.41,6.84-4s3.39,4.1,4.09,8.24c4.42-2.26,10.22-3.64,14.35-2.3,6,1.94,22.42,4.41,25,10.28s2.3,10.55-.44,14.17-12.7,9.08-16.67,9.08c-1.79,0-4.77-.88-7.89-1.91a35.75,35.75,0,0,1-3.17,2.5c-8.24,5.76-10.94,1.29-11.88-3.18a5.81,5.81,0,0,1-.07-1.87,29,29,0,0,0-6.15,2.25,23.15,23.15,0,0,0-.62,5.25,21.19,21.19,0,0,0,3.6,11.9s-.93,4.5-1.76,11.25l1,.34a23.59,23.59,0,0,1,.94-7.83c.87-3.36,4.38-8.59,9.44-7.17s6.82,8.47,5.53,14.7a9.34,9.34,0,0,1-1,2.77c4.45-1,8.8-4,10.57-6.7,2.35-3.6,4.17-13.57,7.44-17.1S431.27,999,431.27,999s11.31,21.29,23.74,33a4.29,4.29,0,0,0-.26.72c1.39,0,2.58-.07,3.48-.07,0-.56.11-1.14.16-1.74a58.34,58.34,0,0,0-1.84-11.12s-3.72,1.64-7.9-4.06-1.76-8.79-4.28-12.68c-1.23-1.9,0-5.63,1.56-8.92q-1.12-2-2.39-4l3.26-3.65c.29-1.43,3.14-15.7.8-25.64l.21.06a33.27,33.27,0,0,0-8-13.3C446.12,949.29,449.54,948.29,457.42,948.47Z" transform="translate(-341.32 -863.05)"/><path class="cls-12" d="M444.37,1003.08c2.52,3.89.11,7,4.28,12.68s7.89,4.06,7.9,4.06a104,104,0,0,0-10.62-25.66C444.37,997.45,443.14,1001.18,444.37,1003.08Z" transform="translate(-341.32 -863.05)"/><path class="cls-8" d="M456.55,1019.82h0a58.34,58.34,0,0,1,1.84,11.12c.53-6.15.75-14.79-1-22.24-.28-1.17-.6-2.3-.94-3.4C456.14,1009.84,455.87,1016.69,456.55,1019.82Z" transform="translate(-341.32 -863.05)"/><path class="cls-12" d="M457.64,1037.35c.17-1.11.38-2.72.59-4.67-.9,0-2.09,0-3.48.07C454.42,1034,454.27,1036.34,457.64,1037.35Z" transform="translate(-341.32 -863.05)"/><path class="cls-10" d="M456.55,1019.82h0c-.68-3.13-.41-10-.13-14.52a61.29,61.29,0,0,0-7.74-16.13,54,54,0,0,0-2.75,5A104,104,0,0,1,456.55,1019.82Z" transform="translate(-341.32 -863.05)"/><path class="cls-7" d="M454.75,1032.75c-2.12.08-4.68.22-7.33.51-4.75.51-10.76,2-14.91,2.72.89,1.16,1.81,2.29,2.73,3.37a45.61,45.61,0,0,0,22.12-.29s.11-.62.28-1.71C454.27,1036.34,454.42,1034,454.75,1032.75Z" transform="translate(-341.32 -863.05)"/><path class="cls-16" d="M507.63,938.3c-1.58,2.13-6.27,3.91-7.62,4.43l-.24.09c-1.17.47,2.35,10,.35,12.41s-7.29-.53-8.41-.29-.41,3.76-1.76,5.35-5.71-1.18-7.83-2.53,0-9.91,0-9.91c-4.82,4.15-6,13.15-6,14.68a7,7,0,0,1-1.43,3.17,1.88,1.88,0,0,0,.88.59c1.94.44,6.17-2.29,8-4.59,0,0,4.14,5.21,7.23,5.21s9.09-3.62,9.09-3.62,5,1.06,8.65-5.82C511.35,952.18,512.26,943.53,507.63,938.3Z" transform="translate(-341.32 -863.05)"/><path class="cls-8" d="M445.93,994.16a54,54,0,0,1,2.75-5c-1.14-1.67-1.91-2.59-1.91-2.59l0-.12-3.26,3.65Q444.8,992.18,445.93,994.16Z" transform="translate(-341.32 -863.05)"/><path class="cls-17" d="M499.77,942.82l.24-.09a6.85,6.85,0,0,0-5-1.56c-4.06.3-10,3.53-10.47,2.59-.29-.57,1.48-3.38,2.58-6.07-.28-.29-1.3-1.36-1.85-1.84-.7,2.23-1.8,5.14-2.91,5.5-1.82.59-3.59-1.18-4.53-.53-.69.47-3.69,3-5.26,4.35-.08.5-.15,1-.22,1.52-.13,1-.23,2-.28,3,0,.67-.05,1.31,0,1.9.08,2.39,0,5.49-.15,8.05.2.69,1.38,4.57,2.8,6.09a7,7,0,0,0,1.43-3.17c0-1.53,1.18-10.53,6-14.68,0,0-2.11,8.56,0,9.91s6.48,4.12,7.83,2.53.65-5.12,1.76-5.35,6.41,2.7,8.41.29S498.6,943.29,499.77,942.82Z" transform="translate(-341.32 -863.05)"/><path class="cls-4" d="M379.13,933.25c1.7-.84,3.75-.14,6.73,1.36s10.47,7.24,18.5,8,26,3.94,40.21-7.87a19.73,19.73,0,0,1-9.24,9.46c-7,3.53-19,5.71-32.33,4.24-4.38-.49-8.75-1.45-11.68-3.12s-4.39-2.59-6.06-2.8-6.75-2.6-6.55-6.39S379.13,933.25,379.13,933.25Z" transform="translate(-341.32 -863.05)"/><path class="cls-18" d="M385,945.88a8.11,8.11,0,0,1,7.05,0,34.35,34.35,0,0,0-9.5-4.53,15.4,15.4,0,0,0,1.74,1s-5.94-.29-8.41,2.94A29.48,29.48,0,0,0,369.68,960a32.59,32.59,0,0,0-.2,3.46C373.14,954.91,381.58,947.54,385,945.88Z" transform="translate(-341.32 -863.05)"/><path class="cls-4" d="M472,951.56c0-.59,0-1.23,0-1.9-2.8-.36-8.84-1.06-14.65-1.19-7.88-.18-11.3.82-17.59-.89a33.27,33.27,0,0,1,8,13.3,44.61,44.61,0,0,0,24.05-1.38l0,.11C472,957.05,472.12,954,472,951.56Z" transform="translate(-341.32 -863.05)"/><path class="cls-4" d="M431.27,999s-17.56-.89-20.82,2.64-5.09,13.5-7.44,17.1c-1.77,2.69-6.12,5.68-10.57,6.7a8.8,8.8,0,0,1-9,4.17c-2.06-.43-5.47-1.36-5.91-6.64l-1-.34c-.33,2.69-.65,5.74-.88,9a63.48,63.48,0,0,0,12.23,2.5,59.93,59.93,0,0,0,16.88-.6c1.06-2.18,2.16-4.59,3.12-6.74,2.35-5.29,3.53-8.12,3.53-8.12a37.12,37.12,0,0,0,9.53-.47,156.47,156.47,0,0,0,11.5,17.75c4.15-.67,10.16-2.21,14.91-2.72,2.65-.29,5.21-.43,7.33-.51a4.29,4.29,0,0,1,.26-.72C442.58,1020.32,431.27,999,431.27,999Z" transform="translate(-341.32 -863.05)"/><path class="cls-4" d="M389.36,980.82s8.82-4,12,0c2.73,3.43,1,8.68-4.71,13.74,3.12,1,6.1,1.91,7.89,1.91,4,0,13.94-5.47,16.67-9.08s3-8.31.44-14.17-19-8.34-25-10.28c-4.13-1.34-9.93,0-14.35,2.3.05.31.11.61.15.93,1.06,8.41-1.59,13.36-4.77,13.59a4.56,4.56,0,0,1-3.75-1.64c-.24,1.47-.39,2.83-.48,3.88a2.89,2.89,0,0,0,.35.35,16.93,16.93,0,0,0,5,3,33.92,33.92,0,0,0-3.48,8.91,29,29,0,0,1,6.15-2.25C382,987.68,386.29,982.25,389.36,980.82Z" transform="translate(-341.32 -863.05)"/><path class="cls-12" d="M384.56,1036.79a6,6,0,0,0,3.39-2.63,63.48,63.48,0,0,1-12.23-2.5c-.08,1.2-.16,2.42-.22,3.66C378.5,1036.11,382.9,1037.13,384.56,1036.79Z" transform="translate(-341.32 -863.05)"/><path class="cls-7" d="M388,1034.16a6,6,0,0,1-3.39,2.63c-1.66.34-6.06-.68-9.06-1.47,0,.19,0,.37,0,.56a22.29,22.29,0,0,0,11.76,4.94c7.3.82,12.71.12,13.88-.82.7-.56,2.15-3.25,3.71-6.44A59.93,59.93,0,0,1,388,1034.16Z" transform="translate(-341.32 -863.05)"/><path class="cls-7" d="M377.71,979.76c3.18-.23,5.83-5.18,4.77-13.59,0-.32-.1-.62-.15-.93a18.27,18.27,0,0,0-4.88,3.43c-1.91,2-2.94,6-3.49,9.45A4.56,4.56,0,0,0,377.71,979.76Z" transform="translate(-341.32 -863.05)"/><path class="cls-12" d="M382.33,965.24c-.7-4.14-2.34-6.93-4.09-8.24s-5.35-.63-6.84,4a25.3,25.3,0,0,0-.28,10.77,13.48,13.48,0,0,0,2.84,6.36c.55-3.43,1.58-7.45,3.49-9.45A18.27,18.27,0,0,1,382.33,965.24Z" transform="translate(-341.32 -863.05)"/><path class="cls-12" d="M381.53,992a5.81,5.81,0,0,0,.07,1.87c.94,4.47,3.64,8.94,11.88,3.18a35.75,35.75,0,0,0,3.17-2.5c-3.83-1.25-7.85-2.71-10.11-3A14.31,14.31,0,0,0,381.53,992Z" transform="translate(-341.32 -863.05)"/><path class="cls-7" d="M401.36,980.82c-3.18-4-12,0-12,0A17,17,0,0,0,381.53,992a14.31,14.31,0,0,1,5-.48c2.26.32,6.28,1.78,10.11,3C402.38,989.5,404.09,984.25,401.36,980.82Z" transform="translate(-341.32 -863.05)"/><path class="cls-4" d="M401.39,980.47l0-.05c-3.26-4.34-12.31,0-12.31,0a15.55,15.55,0,0,0-5.12,5.05c1.09,0,8.09,0,10.67-1.39S399.47,982,401.39,980.47Z" transform="translate(-341.32 -863.05)"/><path class="cls-19" d="M392.44,1025.47a9.34,9.34,0,0,0,1-2.77c1.29-6.23-.47-13.29-5.53-14.7s-8.57,3.81-9.44,7.17a23.59,23.59,0,0,0-.94,7.83,56.06,56.06,0,0,0,10.5,2.76A12.54,12.54,0,0,0,392.44,1025.47Z" transform="translate(-341.32 -863.05)"/><path class="cls-20" d="M383.48,1029.64a8.8,8.8,0,0,0,9-4.17,12.54,12.54,0,0,1-4.37.29,56.06,56.06,0,0,1-10.5-2.76C378,1028.28,381.42,1029.21,383.48,1029.64Z" transform="translate(-341.32 -863.05)"/><path class="cls-19" d="M397.57,912.2c-5.3-.09-9.8,2.12-10.95,7.85S385,933.55,390,935.41,400.92,938,405.6,934s6.88-10.59,3.88-15S402.6,912.29,397.57,912.2Z" transform="translate(-341.32 -863.05)"/><path class="cls-21" d="M407.8,919.88c-2.56-.43-3.44,5.38-5.12,6.79s-5.56,1.86-7,4.68.77,5.45,4.59,4.59a13.41,13.41,0,0,0,9.09-8C410.83,924.1,410.45,920.32,407.8,919.88Z" transform="translate(-341.32 -863.05)"/><path class="cls-19" d="M440.3,953.82c-1.59-2.08-7.88-3.18-12.53-.76s-9.88,8.88-6.12,14.94,6.59,9.64,11.89,8.47S448.3,964.29,440.3,953.82Z" transform="translate(-341.32 -863.05)"/><path class="cls-22" d="M405.42,925.26c-1.33-.5-2.5-1-3.66-1.49l-1.71-.71-1.67-.64,1.12,0-1.86.88-1.92.88c-.66.28-1.32.57-2,.84s-1.37.56-2.15.79a8.43,8.43,0,0,1,1.22-2,12.65,12.65,0,0,1,1.61-1.66,14.83,14.83,0,0,1,3.92-2.45l.59-.25.54.22a11.93,11.93,0,0,1,3.55,2.24,10.26,10.26,0,0,1,1.39,1.55A7.37,7.37,0,0,1,405.42,925.26Z" transform="translate(-341.32 -863.05)"/><path class="cls-22" d="M433.31,918.72a6.76,6.76,0,0,1,.12-1.86,8.92,8.92,0,0,1,.52-1.74,8.19,8.19,0,0,1,.89-1.64A6.18,6.18,0,0,1,436.3,912l.59-.43.72.24a11.69,11.69,0,0,1,1.76.77,10.42,10.42,0,0,1,1.57,1.08,7.93,7.93,0,0,1,1.33,1.44A4.23,4.23,0,0,1,443,917a13.92,13.92,0,0,0-1.68-.69l-1.58-.55-1.56-.53-1.51-.54,1.32-.18a16.37,16.37,0,0,0-2.09,1.92A27.76,27.76,0,0,1,433.31,918.72Z" transform="translate(-341.32 -863.05)"/><path class="cls-23" d="M415.77,934.23s-1.17,4.71,1.77,7.12a9.81,9.81,0,0,0,8.88,1.59c1.94-.71,5.88-3.65,1-7.77S417.3,930.76,415.77,934.23Z" transform="translate(-341.32 -863.05)"/><path class="cls-24" d="M421.48,925.79c3.17,1.5,5.94,3.62,9.35,1.27,2.19-1.51,2.68-3.35,3.45-4.33-2.27-2.19-3.53-2.9-5.21-2.5-1.86.44-2.92,1.85-4.15,2.3-2.42.86-4.59-1-6.62,0a10,10,0,0,0-2.9,2.36A13.24,13.24,0,0,1,421.48,925.79Z" transform="translate(-341.32 -863.05)"/><path class="cls-25" d="M422.07,934a9.28,9.28,0,0,1-8.41-6.45,5.9,5.9,0,0,0-.56,2.56c.08,3.18,3.79,8.3,9.52,7.95s10.06-2.39,12-5.12a9.47,9.47,0,0,0,1.93-6.24A15.09,15.09,0,0,1,422.07,934Z" transform="translate(-341.32 -863.05)"/><path class="cls-26" d="M422.07,934a15.09,15.09,0,0,0,14.48-7.3,5.37,5.37,0,0,0-1.57-3.29l-.7-.68c-.77,1-1.26,2.82-3.45,4.33-3.41,2.35-6.18.23-9.35-1.27a13.24,13.24,0,0,0-6.08-.9,11.09,11.09,0,0,0-1.74,2.66A9.28,9.28,0,0,0,422.07,934Z" transform="translate(-341.32 -863.05)"/><path class="cls-6" d="M424.92,922.53c-2.42.86-4.59-1-6.62,0s-5.29,4.41-5.2,7.58,3.79,8.3,9.52,7.94,10.06-2.38,12-5.11,3.09-6.8.36-9.53-4.06-3.62-5.91-3.18S426.15,922.08,424.92,922.53Z" transform="translate(-341.32 -863.05)"/><path class="cls-22" d="M422.15,924.38l-1.21,1.5c-.37.44-.72.87-1.09,1.29s-.74.84-1.16,1.27a10.64,10.64,0,0,1-1.51,1.29,4.2,4.2,0,0,1,.15-2.09,5.17,5.17,0,0,1,1-1.79A5,5,0,0,1,420,924.6,3.15,3.15,0,0,1,422.15,924.38Z" transform="translate(-341.32 -863.05)"/><path class="cls-22" d="M429.6,923.11a2.41,2.41,0,0,1,1.38-.59,2.84,2.84,0,0,1,1.38.2,2.81,2.81,0,0,1,1.14.86,2.08,2.08,0,0,1,.45,1.48,12.47,12.47,0,0,1-1.35-.19,5.22,5.22,0,0,1-2-.82A5.68,5.68,0,0,1,429.6,923.11Z" transform="translate(-341.32 -863.05)"/><path class="cls-22" d="M386.81,967.35a8.84,8.84,0,0,1-2.33-.44,16.19,16.19,0,0,1-2-.83,8.92,8.92,0,0,0-3.84-.61,6.25,6.25,0,0,0-3.65,1.39,8.53,8.53,0,0,0-2.4,3.31,8.81,8.81,0,0,1,2.06-3.68,7,7,0,0,1,3.86-2,10.11,10.11,0,0,1,4.44.18,16.47,16.47,0,0,0,2,.56,7.18,7.18,0,0,0,1.81.13Z" transform="translate(-341.32 -863.05)"/><path class="cls-6" d="M378.86,985.35s17.29,2.21,24-6.18" transform="translate(-341.32 -863.05)"/><path class="cls-27" d="M394.77,960.82a19.8,19.8,0,0,1,14.65-4c4.86.57,8,3.94,9.45,5.95a18,18,0,0,0-1.51-7.71c-1.65-3.06-8.94-9.3-14.71-8.59s-7.76,3.64-7.76,3.64-4.47-.23-6.59,3.18a5.93,5.93,0,0,0-.29.56C389,962.77,392.29,962.75,394.77,960.82Z" transform="translate(-341.32 -863.05)"/><path class="cls-27" d="M387.26,963.61c-.79.49-2.75,1.78-2.84,2.62-.12,1.06,2.23,8.12,9.88,12.59.34.2.68.37,1,.55-1.42-2.44-1.84-5.31-2.89-7.9A36.9,36.9,0,0,0,387.26,963.61Z" transform="translate(-341.32 -863.05)"/><path class="cls-28" d="M409.42,956.82a19.8,19.8,0,0,0-14.65,4c-2.48,1.93-5.74,1.95-6.76-7-1.68,3.53-.41,9.56-.41,9.56a3.87,3.87,0,0,0-.34.2,36.9,36.9,0,0,1,5.16,7.86c1.05,2.59,1.47,5.46,2.89,7.9,7.23,3.13,12.94,1.66,13.84,1.21s.27-4.94.27-4.94,5.59-2.35,7.94-6.11a13.41,13.41,0,0,0,1.51-6.76C417.41,960.76,414.28,957.39,409.42,956.82Z" transform="translate(-341.32 -863.05)"/><path class="cls-29" d="M409.35,950.58c.66-1-3.27-3.48-6.45-3.08s-6.53,2.2-7.1,4-.31,5.12,2.21,4.55,2.86-3.88,5.11-5S408.6,951.69,409.35,950.58Z" transform="translate(-341.32 -863.05)"/><path class="cls-6" d="M394.89,950.11s-4.47-.23-6.59,3.18-.7,10.12-.7,10.12-3.06,1.76-3.18,2.82,2,8.63,9.88,12.59c7.77,3.88,13.77,2.35,14.71,1.88s.41-5.06.41-5.06,5.59-2.35,7.94-6.11,1.65-11.42,0-14.47-8.94-9.3-14.71-8.59S394.89,950.11,394.89,950.11Z" transform="translate(-341.32 -863.05)"/><path class="cls-22" d="M409.54,976.13a13.76,13.76,0,0,1-6.58-.5,23.59,23.59,0,0,1-5.87-2.78,27.29,27.29,0,0,1-5-4.07,50.34,50.34,0,0,1-4.07-4.94c1.45,1.56,2.88,3.14,4.45,4.55a30.79,30.79,0,0,0,5.1,3.69,26,26,0,0,0,5.71,2.48,18.7,18.7,0,0,0,3,.61,11.15,11.15,0,0,0,3,0Z" transform="translate(-341.32 -863.05)"/><path class="cls-22" d="M395.17,950.59a12.52,12.52,0,0,0-1.72,2.72,6.49,6.49,0,0,0-.69,3.16,6.67,6.67,0,0,1,.22-3.34,11.71,11.71,0,0,1,.59-1.59,12.45,12.45,0,0,1,.79-1.54Z" transform="translate(-341.32 -863.05)"/><path class="cls-22" d="M377.87,1011.33a25.56,25.56,0,0,1,3.64-8.29,25.33,25.33,0,0,0-2.66,8.44Z" transform="translate(-341.32 -863.05)"/><path class="cls-22" d="M411,1018.51c.63-1.35,1.2-2.78,1.7-4.21a43.28,43.28,0,0,0,1.3-4.38,43.24,43.24,0,0,1-.82,4.52,44.94,44.94,0,0,1-1.26,4.46Z" transform="translate(-341.32 -863.05)"/><path class="cls-22" d="M447.22,961.43a29.65,29.65,0,0,0-1.13-3.7,30.77,30.77,0,0,0-1.61-3.56,23.23,23.23,0,0,0-2.09-3.3,19.65,19.65,0,0,0-2.68-2.87,19.36,19.36,0,0,1,2.87,2.71,25.32,25.32,0,0,1,2.34,3.21,33.79,33.79,0,0,1,1.86,3.52,28.21,28.21,0,0,1,1.41,3.76Z" transform="translate(-341.32 -863.05)"/><path class="cls-22" d="M448.07,928.77a31.41,31.41,0,0,1-2.22,4.55,35.63,35.63,0,0,1-2.82,4.15,29.67,29.67,0,0,1-3.39,3.69,28.44,28.44,0,0,1-3.93,3.07,28.48,28.48,0,0,0,3.76-3.25,29.58,29.58,0,0,0,3.16-3.81A36.13,36.13,0,0,0,445.2,933a31.52,31.52,0,0,0,1.92-4.5Z" transform="translate(-341.32 -863.05)"/><path class="cls-6" d="M437,888.58s-.31,4.42-1.23,5.63c-1.34,1.76-3.69,1.91-4.75-.38s-.82-3.47-2.5-3.76-5.07,0-6.41-2.26a5.42,5.42,0,0,1-.29-5.56c.71-1.19.52-4.33.47-6.59" transform="translate(-341.32 -863.05)"/><path class="cls-22" d="M446.92,916.54a6.57,6.57,0,0,1-1.59-1.95,10.39,10.39,0,0,1-.95-2.23,9.34,9.34,0,0,0-2.17-3.94c-2-2.38-4.38-4.38-6.57-6.59,2.31,2.09,4.81,3.95,6.95,6.26a14.22,14.22,0,0,1,1.48,1.86,7.72,7.72,0,0,1,.6,1c.16.4.3.78.42,1.12a9.6,9.6,0,0,0,1,2,6.27,6.27,0,0,0,1.41,1.59Z" transform="translate(-341.32 -863.05)"/><path class="cls-6" d="M474,939.64s-1.88,2.91-2.18,10.28.12,9.69.12,9.69" transform="translate(-341.32 -863.05)"/><path class="cls-22" d="M482.4,962.76a18.34,18.34,0,0,1-1.19-3,19.66,19.66,0,0,1-.69-3.09,15.06,15.06,0,0,1-.12-3.14,11.76,11.76,0,0,1,.64-3,11.8,11.8,0,0,0-.14,3,15.22,15.22,0,0,0,.59,2.93,19.4,19.4,0,0,0,1.11,2.76,18.42,18.42,0,0,0,1.49,2.49Z" transform="translate(-341.32 -863.05)"/><path class="cls-22" d="M499.65,964.8a13.41,13.41,0,0,1-2.27-1.41,15,15,0,0,1-1.92-1.73,13,13,0,0,1-1.56-2,13.39,13.39,0,0,1-1.12-2.24,12.42,12.42,0,0,0,1.52,1.93,11.72,11.72,0,0,0,1.82,1.56,13.23,13.23,0,0,0,2.05,1.2,11.57,11.57,0,0,0,2.13.79Z" transform="translate(-341.32 -863.05)"/><path class="cls-6" d="M366.42,908.35s2.38,4,6.2,3.85,6.29-4.32,7.09-6-.78-4.87-2-6.31c0,0-.4-4.07.49-6.47" transform="translate(-341.32 -863.05)"/><path class="cls-22" d="M425.1,889.44a3.67,3.67,0,0,1-.31,1.08,5.91,5.91,0,0,1-.47.86,7.88,7.88,0,0,1-1.21,1.41,11.83,11.83,0,0,1-3,1.91,12.22,12.22,0,0,1-3.33,1,7,7,0,0,1-3.48-.61,20.38,20.38,0,0,1-5.32-4,21,21,0,0,0-5.12-4,21,21,0,0,1,5.45,3.66,20,20,0,0,0,5.36,3.48,5.84,5.84,0,0,0,2.94.3,10.7,10.7,0,0,0,2.83-1.14,10.25,10.25,0,0,0,2.41-1.82,6.37,6.37,0,0,0,.84-1.13,4.56,4.56,0,0,0,.27-.61,2.19,2.19,0,0,0,.12-.49Z" transform="translate(-341.32 -863.05)"/><path class="cls-26" d="M419.12,998.47c2.36,2.47,3-.67,3-.67s.42,4.43,4.48,4.14,4.47-3,4.23-4.65a4,4,0,0,0,4.77,2.88c3.82-.76,3.7-3.29,3.7-3.29s2.87,2.65,5.47,2.88a7.21,7.21,0,0,0,4-.65v0a3.38,3.38,0,0,0-.48-1.55,4.08,4.08,0,0,1-1.69.58c-4.11.64-5.15-4.73-6.83-6.5s-8.47-1.32-10.5-.08,1.77,6.08-2.38,6.17-1.59-2.82-3.44-5.82c-1.24-2-5.13,0-7.56,1.51a28.23,28.23,0,0,0-1.21,5.38C416.22,997.86,418,997.3,419.12,998.47Z" transform="translate(-341.32 -863.05)"/><path class="cls-24" d="M423.42,991.88c1.85,3-.71,5.91,3.44,5.82s.35-4.94,2.38-6.17,8.83-1.68,10.5.08,2.72,7.14,6.83,6.5a4.08,4.08,0,0,0,1.69-.58c-.82-1.53-2.41-3.2-2.55-4.69a15,15,0,0,0-1.76-6.43c-2.51-4-8.79-4.88-15.77-3.94-6.67.89-10.11,5-11.82,9.5-.18.47-.35.95-.5,1.42C418.29,991.86,422.18,989.87,423.42,991.88Z" transform="translate(-341.32 -863.05)"/><path class="cls-30" d="M445.36,1003.76c.05-.42.11-.92.17-1.48.1-1,3.2.56,3.21-3.17a7.21,7.21,0,0,1-4,.65c-2.6-.23-5.47-2.88-5.47-2.88s.12,2.53-3.7,3.29a4,4,0,0,1-4.77-2.88c.24,1.65-.18,4.35-4.23,4.65s-4.48-4.14-4.48-4.14-.64,3.14-3,.67c-1.11-1.17-2.9-.61-4.47.3a22.61,22.61,0,0,0,1.18,10.87,9.89,9.89,0,0,0,5.7,5.52c1.06.44.39,2.48,3.48,3,2.82.44,2.8-1.72,4.32-1.77,1,0,2-.11,3.09-.25a15.47,15.47,0,0,0,7.93-3.28c1.07-.87,3.23,4.39,5.48,1.28,2.43-3.35-1.59-6.23-1.2-7.3A14.6,14.6,0,0,0,445.36,1003.76Z" transform="translate(-341.32 -863.05)"/><path class="cls-26" d="M426.29,1008.73c-1.8-.46-2.56,1.46-2.83,3.13s.18,3.62,1.59,3.67a3.51,3.51,0,0,0,3.27-2.92C428.58,1010.94,428,1009.17,426.29,1008.73Z" transform="translate(-341.32 -863.05)"/><path class="cls-26" d="M440.71,1005.33c-2.11.51-.66,3.45.84,4.28s2.12,3.19,3.49,2.08S443.32,1004.72,440.71,1005.33Z" transform="translate(-341.32 -863.05)"/><path class="cls-6" d="M444,986.41c-2.51-4-8.79-4.88-15.77-3.94-6.67.89-10.11,5-11.82,9.5-2.7,7-2.21,13.41-.53,17.67a9.89,9.89,0,0,0,5.7,5.52c1.06.44.39,2.48,3.48,3,2.82.44,2.8-1.72,4.32-1.77,1,0,2-.11,3.09-.25a15.47,15.47,0,0,0,7.93-3.28c1.07-.87,3.23,4.39,5.48,1.28,2.43-3.35-1.59-6.23-1.2-7.3a14.6,14.6,0,0,0,.73-3c.05-.42.11-.92.17-1.48.1-1,3.21.57,3.21-3.2,0-1.9-2.84-4.23-3-6.24A15,15,0,0,0,444,986.41Z" transform="translate(-341.32 -863.05)"/><path class="cls-22" d="M445.6,1002.45a6.57,6.57,0,0,1-2.09-.78,12.51,12.51,0,0,1-1.76-1.17,18.78,18.78,0,0,1-1.57-1.37c-.49-.49-1-1-1.41-1.52.51.46,1,.91,1.58,1.33a18.51,18.51,0,0,0,1.68,1.15,11.63,11.63,0,0,0,1.8.9,6,6,0,0,0,1.82.46Z" transform="translate(-341.32 -863.05)"/><path class="cls-22" d="M429.63,996a6.38,6.38,0,0,1,1.24,5.31,4.58,4.58,0,0,1-1.34,2.62,3.89,3.89,0,0,1-2.86.88,5,5,0,0,1-2.77-1,4.68,4.68,0,0,1-1.56-2.46,6.74,6.74,0,0,1-.15-2.82,5.16,5.16,0,0,1,1-2.54,6.71,6.71,0,0,0-.6,2.59,6.47,6.47,0,0,0,.36,2.56,4.24,4.24,0,0,0,1.43,2,4.36,4.36,0,0,0,2.3.74,3.12,3.12,0,0,0,2.21-.63,4,4,0,0,0,1.2-2.09,7.43,7.43,0,0,0,.21-2.57A11.15,11.15,0,0,0,429.63,996Z" transform="translate(-341.32 -863.05)"/><path class="cls-22" d="M428.32,1016.23a5.3,5.3,0,0,0,.68-1.3,8.53,8.53,0,0,0,.41-1.5,11.79,11.79,0,0,0,.1-3.2,12.16,12.16,0,0,1,.4,3.25,9.38,9.38,0,0,1-.19,1.66,6.27,6.27,0,0,1-.58,1.67Z" transform="translate(-341.32 -863.05)"/><path class="cls-22" d="M421.51,1015.76a6.54,6.54,0,0,1-.37-1.67,8.16,8.16,0,0,1,0-1.64,8.37,8.37,0,0,1,1-3,8.36,8.36,0,0,0-.51,3,7.33,7.33,0,0,0,.21,1.49,5.58,5.58,0,0,0,.52,1.34Z" transform="translate(-341.32 -863.05)"/><path class="cls-22" d="M440.57,1013.17a16.83,16.83,0,0,1-1.75-2.59,12.51,12.51,0,0,1-1.17-2.84,11.8,11.8,0,0,0,1.59,2.56,15.47,15.47,0,0,0,2,2.16Z" transform="translate(-341.32 -863.05)"/><path class="cls-22" d="M444.19,1007.43a3.29,3.29,0,0,0-.26-.81,4.92,4.92,0,0,0-.45-.8,6.57,6.57,0,0,0-1.28-1.41,6.76,6.76,0,0,1,1.66,1.08,6.24,6.24,0,0,1,.71.74,4,4,0,0,1,.58.93Z" transform="translate(-341.32 -863.05)"/><path class="cls-6" d="M437,888.58a26.7,26.7,0,0,0-2.47-12.35c-3.53-8-9.42-10.82-9.42-10.82s-.11,6.35-2.7,10.59c0,0-.94-3.77-7.41-4.94s-12.94,3.76-15.41,6.11-4.48,4.94-6.36,5.65-4.7.24-7.88,2.82-7.18,8.71-7.18,8.71-5.53-4.82-7.41-7.41-4.7-6.24-4.7-6.24a25.41,25.41,0,0,0-3.3,10.47c-.23,5.41.94,10.59,3.65,17.18a25.25,25.25,0,0,1-4.69,8.71c-3.31,3.76-5.78,6.82-6,11.88s2.24,8.47,7.3,9.88,8.59,1.29,11.76,0,3.88-3.41,3.88-3.41-.35,4,5.65,6.94c0,0-5.94-.3-8.41,2.94A29.48,29.48,0,0,0,369.68,960c-.79,6.73.71,11.67,1.59,15s1,6.08,2.56,7.32a16.93,16.93,0,0,0,5,3s-4.15,6.93-4.1,14.16a21.19,21.19,0,0,0,3.6,11.9,172.19,172.19,0,0,0-2.88,24.47,22.29,22.29,0,0,0,11.76,4.94c7.3.82,12.71.12,13.88-.82s4.48-7.89,6.83-13.18,3.53-8.12,3.53-8.12a37.12,37.12,0,0,0,9.53-.47s6.76,12.41,14.23,21.12a45.61,45.61,0,0,0,22.12-.29s3.18-17.06,0-30.36a58.93,58.93,0,0,0-10.59-22.12s3.3-15.29.83-25.76a44.19,44.19,0,0,0,24.26-1.32s1.76,6.35,3.71,6.79,6.17-2.29,8-4.59c0,0,4.14,5.21,7.23,5.21s9.09-3.62,9.09-3.62,5,1.06,8.65-5.82,4.08-19.47-6.74-22.77-14.94,2.71-14.94,2.71a22.75,22.75,0,0,0-6-4.59c-2.94-1.29-7.06,7.06-7.06,7.06a112.7,112.7,0,0,0-26.23-11.27s2.2-8-.71-12.88c0,0,6.79-.53,8.38-5.38s1.15-12-1.67-15.71S440.07,888.64,437,888.58Z" transform="translate(-341.32 -863.05)"/><path class="cls-31" d="M569.65,880.94c2.6.73,7.27,5.92,10.92,10.2a.84.84,0,0,0,.06-1.13l-6.86-9a5.74,5.74,0,0,0-4.83-2.62h-2.15A4.47,4.47,0,0,0,569.65,880.94Z" transform="translate(-341.32 -863.05)"/><path class="cls-32" d="M502.39,880.7c-.42,3,1.1,4.34,2.65,4.95a7.14,7.14,0,0,1-.41-7.19,8.13,8.13,0,0,1,3.1-3.58.57.57,0,0,0,.29-.48A7.68,7.68,0,0,0,502.39,880.7Z" transform="translate(-341.32 -863.05)"/><path class="cls-31" d="M508.66,889.23c4.91,0,7-3.7,8.29-6.27a4.29,4.29,0,0,1,3.9-2.41c5.13,0,15.89.11,18,0a2.61,2.61,0,0,0,2.53-2.12H519.94a5.36,5.36,0,0,0-4.86,3.07l-.64,1.42c-1.37,3.12-5,5.29-7.75,4.07a4.36,4.36,0,0,1-1.65-1.32c-1.55-.61-3.07-1.94-2.65-4.95a7.68,7.68,0,0,1,5.63-6.3.64.64,0,0,0-.73-.71,8.77,8.77,0,0,0-1.35.32,8.92,8.92,0,0,0-6.09,7,8.69,8.69,0,0,0-.11,1.43C501,885.82,503.92,889.23,508.66,889.23Z" transform="translate(-341.32 -863.05)"/><path class="cls-32" d="M569.65,880.94a4.47,4.47,0,0,1-2.86-2.53H541.36a2.61,2.61,0,0,1-2.53,2.12c-2.09.13-12.85.06-18,0A4.29,4.29,0,0,0,517,883c-1.26,2.57-3.38,6.27-8.29,6.27-4.74,0-7.65-3.41-8.92-6.81a8.91,8.91,0,0,0,8.92,9,9.73,9.73,0,0,0,6.17-2.48,11,11,0,0,0,3-4c.65-1.35,1.66-2.48,3.16-2.48h47.11a5.73,5.73,0,0,1,3.81,1.44l7.39,7.21a.85.85,0,0,0,1.25,0C576.92,886.86,572.25,881.67,569.65,880.94Z" transform="translate(-341.32 -863.05)"/><path class="cls-6" d="M514.44,882.9c-1.37,3.12-5,5.29-7.75,4.07s-3.63-5-2.06-8.51a8.13,8.13,0,0,1,3.1-3.58.65.65,0,0,0-.44-1.19,8.77,8.77,0,0,0-1.35.32,8.93,8.93,0,0,0,2.72,17.44,9.77,9.77,0,0,0,6.17-2.47,11.13,11.13,0,0,0,3-4c.65-1.35,1.66-2.48,3.16-2.48h47.11a5.73,5.73,0,0,1,3.81,1.44l7.39,7.21a.88.88,0,0,0,1.31-1.16l-6.86-9a5.74,5.74,0,0,0-4.83-2.62h-49a5.36,5.36,0,0,0-4.86,3.07Z" transform="translate(-341.32 -863.05)"/><path class="cls-33" d="M541.05,883.61a.83.83,0,0,0,0,.15s5.76,34.37,6.11,155.82h13.82c.35-121.45,6.12-155.82,6.12-155.82a.83.83,0,0,1,0-.15A107.92,107.92,0,0,0,541.05,883.61Z" transform="translate(-341.32 -863.05)"/><path class="cls-34" d="M567,883.61a71.56,71.56,0,0,0-5.14-13.5h-15.7a71.13,71.13,0,0,0-5.13,13.5A107.92,107.92,0,0,1,567,883.61Z" transform="translate(-341.32 -863.05)"/><path class="cls-6" d="M560.94,1039.58c.35-121.45,6.12-155.82,6.12-155.82a71.56,71.56,0,0,0-5.18-13.65h-15.7A71.13,71.13,0,0,0,541,883.76s5.76,34.37,6.11,155.82Z" transform="translate(-341.32 -863.05)"/><path class="cls-8" d="M504.42,910.41c6.23.94,16-4.47,18.82-7.88a8.84,8.84,0,0,0,1.67-6.61c-2.78-3-11-3.66-17-1.63-5.34,1.81-10.37,6.33-11.11,10.83C497.86,907.6,500.07,909.75,504.42,910.41Z" transform="translate(-341.32 -863.05)"/><path class="cls-3" d="M516.24,929.58c6.68-1.73,9.63-9.78,10.8-14.44l-.09-.08a13.81,13.81,0,0,1-2.08-4.65,22.89,22.89,0,0,1-16.43,10.73,6.5,6.5,0,0,1-.14,1.09c-.27,1.17-1.33,3.15-2.42,5.77A13.56,13.56,0,0,0,516.24,929.58Z" transform="translate(-341.32 -863.05)"/><path class="cls-3" d="M523.4,905.86l.3-.14-.05-.2s3.71-4.77,2-8.62a4.26,4.26,0,0,0-.69-1,8.84,8.84,0,0,1-1.67,6.61c-2.82,3.41-12.59,8.82-18.82,7.88-4.35-.66-6.56-2.81-7.58-5.29a6.43,6.43,0,0,0,.23,3.11c1.61,4.72,8.64,4.41,8.64,4.41l0,0C517.62,912.39,523.4,905.86,523.4,905.86Z" transform="translate(-341.32 -863.05)"/><path class="cls-4" d="M524.87,910.41c-.62-2.06-1-4.07-1.17-4.69l-.3.14s-5.78,6.53-17.67,6.81c.15.23,2.91,4.64,2.71,8.47A22.89,22.89,0,0,0,524.87,910.41Z" transform="translate(-341.32 -863.05)"/><path class="cls-3" d="M553.51,972.63c-4.65,3.16-12.5,7.72-17.68,6.54-7.76-1.76-9.18-11.29-12.18-18.53s-9.53-10.94-13-14.73c-2.69-3-5-11.48-5.89-15a29.89,29.89,0,0,0-1.65,9.13c1.27,3.86,3.55,9.85,6.22,12.59,4.12,4.21,10.24,11,11.53,16s-2,7.3-2.59,10.24,2,10.35,10.71,10.47c7.06.1,14.2-.88,21.66-5.8a12.38,12.38,0,0,0,.69-1.58A46.72,46.72,0,0,0,553.51,972.63Z" transform="translate(-341.32 -863.05)"/><path class="cls-8" d="M523.65,960.64c3,7.24,4.42,16.77,12.18,18.53,5.18,1.18,13-3.38,17.68-6.54,2.57-19.2-5-40.62-11.09-46.87-7-7.22-12.25-7.3-15.38-10.62-1.17,4.66-4.12,12.71-10.8,14.44A13.56,13.56,0,0,1,505.88,928c-.37.89-.74,1.86-1.09,2.89.88,3.54,3.2,12,5.89,15C514.12,949.7,520.65,953.39,523.65,960.64Z" transform="translate(-341.32 -863.05)"/><path class="cls-4" d="M529,989.29c-8.71-.12-11.3-7.53-10.71-10.47s3.88-5.29,2.59-10.24-7.41-11.76-11.53-16c-2.67-2.74-4.95-8.73-6.22-12.59-.07,5.18,1.42,11.11,6.22,17.4,0,0-.12,12,0,18.58s3.51,14.57,16.71,17.29c4.07.84,19.79-.44,24.6-9.8C543.21,988.41,536.07,989.39,529,989.29Z" transform="translate(-341.32 -863.05)"/><path class="cls-3" d="M519.05,896.64a21.6,21.6,0,0,1-4.48,2.59c-1.8.59-8.39.06-10.42.65s2.38,1.16,3.21,1.81-3,2.69-3.21,5.84a7.35,7.35,0,0,0,0,.88s2.08-4.87,7.37-4.42a5.07,5.07,0,0,0,3.29.62,10,10,0,0,1,4.09-.14s-1.89-.89-2.59-1.16S517.24,899.2,519.05,896.64Z" transform="translate(-341.32 -863.05)"/><path class="cls-6" d="M523.65,905.52s3.71-4.77,2-8.62-11.06-4.85-17.65-2.61-12.7,8.59-10.88,13.94c1.61,4.72,8.64,4.41,8.64,4.41s3.53,5.47,2.59,9.59-11.76,18.38,1.06,35.19c0,0-.12,12,0,18.58s3.51,14.57,16.71,17.29c4.29.88,21.53-.57,25.29-11.38,7.29-21-1.88-48.86-8.94-56.15s-12.35-7.29-15.47-10.7C525.12,913.05,523.65,905.52,523.65,905.52Z" transform="translate(-341.32 -863.05)"/><path class="cls-22" d="M509.74,957.09c1.77,2.2,3.44,4.46,5,6.77a67.49,67.49,0,0,1,4.35,7.2,65.5,65.5,0,0,0-4.76-6.9c-1.71-2.2-3.51-4.35-5.38-6.41Z" transform="translate(-341.32 -863.05)"/><path class="cls-22" d="M514.85,911.17c.8-.38,1.59-.76,2.37-1.18s1.52-.86,2.25-1.35a21.24,21.24,0,0,0,2.07-1.57,9.65,9.65,0,0,0,1.7-1.83l.83.55a10.87,10.87,0,0,1-2.06,1.87,20.61,20.61,0,0,1-2.29,1.4c-.78.43-1.59.8-2.39,1.16S515.68,910.87,514.85,911.17Z" transform="translate(-341.32 -863.05)"/><path class="cls-22" d="M504.15,908.81a7.48,7.48,0,0,1,2.09-4,5.35,5.35,0,0,1,2-1.24,5.67,5.67,0,0,1,2.38-.24,7.45,7.45,0,0,1,2.25.63,4.1,4.1,0,0,0,2,.28c.72,0,1.46-.07,2.22-.06a5.16,5.16,0,0,1,2.2.41,5.86,5.86,0,0,0-2.17.06c-.73.1-1.45.25-2.2.34a7.16,7.16,0,0,1-1.15.08,3.57,3.57,0,0,1-.63-.07,4.78,4.78,0,0,1-.59-.18,7.59,7.59,0,0,0-2-.5,5.07,5.07,0,0,0-3.79,1.09A10.1,10.1,0,0,0,504.15,908.81Z" transform="translate(-341.32 -863.05)"/><path class="cls-22" d="M519.05,897a26,26,0,0,0-2.58,3.74,12.13,12.13,0,0,0-.92,2,4.41,4.41,0,0,0-.31,1.87l-2,0a6.18,6.18,0,0,1,1-2.49,13.27,13.27,0,0,1,1.46-1.9A26.56,26.56,0,0,1,519.05,897Z" transform="translate(-341.32 -863.05)"/><polygon class="cls-22" points="164.58 49.08 168.66 49.24 164.65 50.08 164.58 49.08"/><path class="cls-22" d="M510.56,903.78a6.75,6.75,0,0,0-1.32-1.37,9.25,9.25,0,0,0-1.73-1.1,9.9,9.9,0,0,0-2-.71,12.56,12.56,0,0,0-2.14-.33,12.4,12.4,0,0,1,2.2-.17,10.8,10.8,0,0,1,2.25.27,10.93,10.93,0,0,1,2.19.76,8.2,8.2,0,0,1,2.06,1.37Z" transform="translate(-341.32 -863.05)"/><path class="cls-35" d="M512.5,892.77a4.1,4.1,0,0,1-5.7,1.23,28.77,28.77,0,0,0,1.86,4.87,4.65,4.65,0,0,0,4.7-1.85c-.33-1.46-.67-2.86-.82-3.9C512.52,893,512.51,892.88,512.5,892.77Z" transform="translate(-341.32 -863.05)"/><path class="cls-31" d="M512,886.7c-.31-1.71-.93-3-2.34-2.94-2.17.08-3.15,1.3-3.39,3.82C507.29,886.78,509.07,886.15,512,886.7Z" transform="translate(-341.32 -863.05)"/><path class="cls-32" d="M512.5,892.77c-.21-1.77-.17-4.18-.51-6.07-2.92-.55-4.7.08-5.73.88a21.88,21.88,0,0,0,0,3.77,15.08,15.08,0,0,0,.5,2.65A4.1,4.1,0,0,0,512.5,892.77Z" transform="translate(-341.32 -863.05)"/><path class="cls-32" d="M508.66,898.87c1.67,3.46,3.8,6.23,4.94,5.48s.49-4.2-.24-7.33A4.65,4.65,0,0,1,508.66,898.87Z" transform="translate(-341.32 -863.05)"/><path class="cls-6" d="M513.6,904.35c-2,1.3-6.89-7.88-7.3-13s.3-7.47,3.35-7.59,2.42,6.06,2.89,9.36S515.36,903.17,513.6,904.35Z" transform="translate(-341.32 -863.05)"/></svg>