<svg xmlns="http://www.w3.org/2000/svg" viewBox="0 0 460.04 376.92"><defs><style>.cls-1{fill:#c2c8c8;}.cls-2{fill:#ebeaef;}.cls-12,.cls-3,.cls-8{fill:none;}.cls-12,.cls-17,.cls-3,.cls-5,.cls-8{stroke:#482310;stroke-miterlimit:10;}.cls-17,.cls-3,.cls-5,.cls-8{stroke-width:4px;}.cls-4{fill:#fff;}.cls-5,.cls-6{fill:#e8616f;}.cls-17,.cls-7{fill:#ff818d;}.cls-8{stroke-linecap:round;}.cls-9{fill:#5d5c57;}.cls-10{fill:#464540;}.cls-11{fill:#372d25;}.cls-12{stroke-width:6px;}.cls-13{fill:#482310;}.cls-14{fill:#ffffcf;}.cls-15{fill:#fffef8;}.cls-16{fill:#e3cf86;}.cls-18{fill:#fe9da8;}</style></defs><g id="хвост"><path class="cls-1" d="M495.62,236.25c.07,4.4-6.06,19.34-13.32,23.64a25,25,0,0,0-.36,7.16c1.06,5.29-24.88,13.93-46.76-3.36-7-5.56-8.18-11.49-6.49-17a52.14,52.14,0,0,1-6-13.66c-1.15-4.22-.6-9.36,0-14.81.2-1.88.41-3.87.55-5.93h0c-4-16.26-8.36-25.5-30.83-26.44-15.1-.64-25.63,17.33-30.92,29.18l7.41,11.84c0-.09,1.56-13.15,7.67-19.77,9.19-10,16.57-11.26,20.88-8.94,11,5.93,10.08,14.53,8.84,26.14-.69,6.52-.23,16.12,2.66,23.15,7.57,18.36,18,25,32.5,30.71,4,1.58,11.33,3.17,19.77,3.17,8.89,0,19-1.77,27.64-7.18,9.57-6,16.79-21.62,18-27.46Z" transform="translate(-67.73 -109.27)"/><path class="cls-2" d="M435.18,263.69c21.88,17.29,47.82,8.65,46.76,3.36a25,25,0,0,1,.36-7.16c-.2.12-.39.26-.59.36-12,6.25-29,5.39-35.37,2.87-5.76-2.28-12.54-8.18-17.65-16.41C427,252.2,428.14,258.13,435.18,263.69Z" transform="translate(-67.73 -109.27)"/><path class="cls-2" d="M392.41,185.87c22.47.94,26.83,10.18,30.83,26.44h0c.8-11.45-.53-25-17.72-34.26-7.39-4-14.92-4.54-22.35-1.68-16.83,6.46-26.77,28.92-27.19,29.87l5.51,8.81C366.78,203.2,377.31,185.23,392.41,185.87Z" transform="translate(-67.73 -109.27)"/><path class="cls-3" d="M461.22,281.35c-8.44,0-15.78-1.59-19.77-3.17-14.46-5.72-24.93-12.35-32.5-30.71-2.89-7-3.35-16.63-2.66-23.15,1.24-11.61,2.19-20.21-8.84-26.14-4.31-2.32-11.69-1-20.88,8.94-6.11,6.62-7.63,19.68-7.67,19.77L356,206.24c.42-1,10.36-23.41,27.19-29.87,7.43-2.86,15-2.3,22.35,1.68,20.28,10.89,18.48,27.82,17.17,40.19-.58,5.45-1.13,10.59,0,14.81,4.16,15.25,15,26.67,23.63,30.07,6.37,2.52,23.4,3.38,35.37-2.87,7.56-3.95,13-16.81,14.38-24.54l10.73,10.61c-2.18,12.22-8.39,21.85-18,27.85C480.21,279.58,470.11,281.35,461.22,281.35Z" transform="translate(-67.73 -109.27)"/><path class="cls-2" d="M500.77,209.12s19.56,10.35,24.1,29.62-9.24,27.33-16.34,28.23-27.24-5.63-29-21.3S491.93,232.89,496.7,230,507.25,220.93,500.77,209.12Z" transform="translate(-67.73 -109.27)"/><path class="cls-1" d="M505.09,211.86s15.29,25.15,7.75,36.2c-8.39,12.27-17,3.25-20.14,7.51s-1,9.15,12.13,10.64,19.9-10.44,20.85-18S523.43,224.87,505.09,211.86Z" transform="translate(-67.73 -109.27)"/><path class="cls-4" d="M504,217.44s-1.83,15.84-14,14.37c-7.54-.92-12.89,8.36-9.35,16.37a10.92,10.92,0,0,1,10.05-7.43C498.81,240.29,510.15,231.73,504,217.44Z" transform="translate(-67.73 -109.27)"/><path class="cls-3" d="M500.77,209.12s19.56,10.35,24.1,29.62-9.24,27.33-16.34,28.23-27.24-5.63-29-21.3S491.93,232.89,496.7,230,507.25,220.93,500.77,209.12Z" transform="translate(-67.73 -109.27)"/></g><g id="вымя"><path class="cls-5" d="M332,426.29s-4.41,16.41-10.94,18S311,438.11,311,434.41s.88-12.36,3.53-16.42S331.66,415.17,332,426.29Z" transform="translate(-67.73 -109.27)"/><path class="cls-6" d="M366.42,359.58c-20.64-16.41-74.11,6.18-70.06,41.47,3.46,30,34.72,35.77,57.57,24.56a39.11,39.11,0,0,0,6.67,7.21c7.69,6.7,14.29,1.06,14.65-5.3.21-3.87-2.72-10.49-5-15.07C384.87,392.62,374.11,365.69,366.42,359.58Z" transform="translate(-67.73 -109.27)"/><path class="cls-7" d="M315.6,413.58s32.47-5.29,49.23-29.47c0,0-2.47,13.41-4.41,18.35s2.65,10.15,4.41,14.43,2.63,15.43-1.16,14.87c-5.66-.84-8.88-9.52-14.1-9.66-7.77-.22-14.56,3.84-22,2.07S315.07,418.7,315.6,413.58Z" transform="translate(-67.73 -109.27)"/><path class="cls-3" d="M353.4,425.88c-22.8,10.86-53.61,4.95-57-24.83-4.05-35.29,49.42-57.88,70.06-41.47,7.73,6.15,18.58,33.35,3.54,53.21" transform="translate(-67.73 -109.27)"/><path class="cls-8" d="M368.8,409.76s6.8,11.41,6.45,17.76-6.23,11.06-14.65,5.3c-4.06-2.78-8.11-8.33-8.52-10.21" transform="translate(-67.73 -109.27)"/></g><g id="передняя_нога" data-name="передняя нога"><path class="cls-9" d="M106.05,352.94a138.56,138.56,0,0,0-1.87,37.63c1.49,15.61,6.27,32.74,9.78,44a16.79,16.79,0,0,0,12.17-8.89c-2.52-9.13-5.32-18.18-7.34-29C116,381.58,110.57,365.17,106.05,352.94Z" transform="translate(-67.73 -109.27)"/><path class="cls-10" d="M131.12,382.63c-.43-22.11-13.52-31.72-24-35.87-.37,2-.75,4-1.12,6.18,4.52,12.23,9.92,28.64,12.74,43.76,2,10.84,4.82,19.89,7.34,29C131,416.92,131.49,402.19,131.12,382.63Z" transform="translate(-67.73 -109.27)"/><path class="cls-4" d="M114,434.61c1.46,4.7,2.7,8.41,3.39,10.55.53,1.64,1,3.51,1.44,5.43,4.28.31,8.47.41,12.51.34a158.5,158.5,0,0,0-5.17-25.21A16.79,16.79,0,0,1,114,434.61Z" transform="translate(-67.73 -109.27)"/><path class="cls-2" d="M124.41,341.51c-6.71-16-8.86-27.93-8-36.88-5.1,5.66-5.77,22.62-7.77,34.18-.43,2.44-.94,5.1-1.48,7.95,10.43,4.15,23.52,13.76,24,35.87.37,19.56-.16,34.29-5,43.09a158.5,158.5,0,0,1,5.17,25.21c3.76-.07,7.4-.27,10.86-.57C145.15,427.1,144.52,389.32,124.41,341.51Z" transform="translate(-67.73 -109.27)"/><path class="cls-1" d="M167.24,307.75c-8.24-6.12-39.06-12.24-49.89-4a6.4,6.4,0,0,0-.93.88c-.87,8.95,1.28,20.92,8,36.88,20.11,47.81,20.74,85.59,17.75,108.85a166.67,166.67,0,0,0,19.06-2.82c5.34-11.39,12.26-31,14.72-59.79C180.18,338.34,175.47,313.87,167.24,307.75Z" transform="translate(-67.73 -109.27)"/><path class="cls-9" d="M131.3,450.93c-4,.07-8.23,0-12.51-.34,1.48,6.65,2.33,13.86,2.33,13.86a48,48,0,0,0,10.93,1A124.7,124.7,0,0,0,131.3,450.93Z" transform="translate(-67.73 -109.27)"/><path class="cls-10" d="M142.16,450.36c-3.46.3-7.1.5-10.86.57a124.7,124.7,0,0,1,.75,14.56,52.29,52.29,0,0,0,7.47-.62A137.26,137.26,0,0,0,142.16,450.36Z" transform="translate(-67.73 -109.27)"/><path class="cls-11" d="M139.52,464.87a42.09,42.09,0,0,0,14.83-5.22,71.7,71.7,0,0,0,6.87-12.11,166.67,166.67,0,0,1-19.06,2.82A137.26,137.26,0,0,1,139.52,464.87Z" transform="translate(-67.73 -109.27)"/><path class="cls-12" d="M117.35,303.75c-6,4.53-6.59,22.82-8.7,35.06s-6.59,29.64-4.47,51.76,10.82,47.3,13.17,54.59,3.77,19.29,3.77,19.29,17.7,4.38,33.23-4.8c0,0,17.36-22.49,21.59-71.9s-.47-73.88-8.7-80S128.18,295.51,117.35,303.75Z" transform="translate(-67.73 -109.27)"/></g><g id="тулово"><path class="cls-10" d="M404.88,216.45a86.6,86.6,0,0,0-8-4.26c-12.3-.38-26.42,1.64-32.47,11.56a32.74,32.74,0,0,0-4.75,14.08c21.53-3.79,35.54-15.05,48-19.67C406.73,217.59,405.81,217,404.88,216.45Z" transform="translate(-67.73 -109.27)"/><path class="cls-2" d="M241,274.88a208,208,0,0,0-22.65-15.67C213,264,209.19,269,204.53,273.4c-10.94,10.23-68.62,28.58-77.37,38.82a97.87,97.87,0,0,0-10.53,14.42,57.39,57.39,0,0,0,3.55,14.05c.66,1.72,1.36,3.39,2.08,5a167.92,167.92,0,0,0,39.88,13.89c-2.65-7.93-1.75-17,3.45-25.5,12.23-20,31.29-13.86,39.06-2.61,6.4,9.28,9.31,21.79,7.9,32A229.08,229.08,0,0,0,243,359.88C299,349.5,282.33,307.87,241,274.88Z" transform="translate(-67.73 -109.27)"/><path class="cls-10" d="M165.59,334.12c-5.2,8.5-6.1,17.57-3.45,25.5a193.17,193.17,0,0,0,50.41,3.88c1.41-10.2-1.5-22.71-7.9-32C196.88,320.26,177.82,314.15,165.59,334.12Z" transform="translate(-67.73 -109.27)"/><path class="cls-11" d="M377.12,267.05c10.6,2.31,38.08-17,59.25-21.35-5.75-9.22-14.77-18.6-28.75-27.54-12.42,4.62-26.43,15.88-48,19.67C358.33,252.24,367.31,264.92,377.12,267.05Z" transform="translate(-67.73 -109.27)"/><path class="cls-4" d="M316.05,203.33a124.28,124.28,0,0,0-16.57,4.15q-3.37,1.1-6.6,2.39c-31.22,12.49-66.47,24.21-97.22,37.48-46.73,20.16-83.06,43.88-79,79.29a97.87,97.87,0,0,1,10.53-14.42c8.75-10.24,66.43-28.59,77.37-38.82,4.66-4.37,8.43-9.37,13.81-14.19h0c7.25-6.5,17.42-12.67,36.66-16.51,15.52-3.1,38.07-9.23,57.83-14.92,12.58-3.63,24-7.07,31.78-9.45A86.76,86.76,0,0,0,383.39,207C362.75,200.59,338.29,199.3,316.05,203.33Z" transform="translate(-67.73 -109.27)"/><path class="cls-1" d="M445.35,271a61.56,61.56,0,0,0-9-25.34c-21.17,4.34-48.65,23.66-59.25,21.35-9.81-2.13-18.79-14.81-17.46-29.22a85.67,85.67,0,0,1-14.45,1.27c-17.44,6.68-51.32,18.78-76.45,22.3-22.69,3.17-35.16,19.48-41.55,33.16,12.06,22.62,16.48,40.05,13.67,47.86-3.68,10.24-18.73,20.6-28.33,21.08-1.58,11.33-8.52,19.8-22,17.73-14.74-2.26-24.81-10.89-28.39-21.61a167.92,167.92,0,0,1-39.88-13.89c28.33,64.33,106.57,77.3,132,76.84,26.12-.47,83.06-11.06,116.24-52.7S447.47,288,445.35,271Z" transform="translate(-67.73 -109.27)"/><path class="cls-2" d="M383.39,207a86.76,86.76,0,0,1-38.78,11.34c-7.76,2.38-19.2,5.82-31.78,9.45-19.76,5.69-42.31,11.82-57.83,14.92-27.16,5.42-36.26,15.49-44.55,24.56a280.75,280.75,0,0,1,16.76,27.3c6.39-13.68,18.86-30,41.55-33.16,25.13-3.52,59-15.62,76.45-22.3a85.67,85.67,0,0,0,14.45-1.27,32.74,32.74,0,0,1,4.75-14.08c6-9.92,20.17-11.94,32.47-11.56A105.1,105.1,0,0,0,383.39,207Z" transform="translate(-67.73 -109.27)"/><path class="cls-11" d="M190.53,381.23c13.5,2.07,20.44-6.4,22-17.73a193.17,193.17,0,0,1-50.41-3.88C165.72,370.34,175.79,379,190.53,381.23Z" transform="translate(-67.73 -109.27)"/><path class="cls-12" d="M356.83,381.23c39.35-35.47,95.49-94.66,86-121.64-7.67-21.84-29-44.25-64.28-54-35.94-9.93-86.33,6-86.33,6" transform="translate(-67.73 -109.27)"/><path class="cls-13" d="M371.53,354.48a103.37,103.37,0,0,0,5.13-14.89,128.31,128.31,0,0,0,3-15.67c.69-5.3,1.13-10.65,1.29-16a150.16,150.16,0,0,0-.34-16.15,149.73,149.73,0,0,1,1.84,16.12q.51,8.13.2,16.31a132.75,132.75,0,0,1-1.62,16.34,109.45,109.45,0,0,1-3.95,16.14Z" transform="translate(-67.73 -109.27)"/><path class="cls-12" d="M168.62,399.31a135,135,0,0,0,80.26,23.27c70.61-2,113.75-37.56,125.45-67" transform="translate(-67.73 -109.27)"/><path class="cls-13" d="M293.08,214.51c-14.7,4.19-29.36,9-43.86,14s-28.86,10.58-43,16.57q-10.6,4.53-21,9.48T164.7,265.16c-6.72,3.74-13.28,7.76-19.61,12.13a135.52,135.52,0,0,0-17.93,14.5,136,136,0,0,1,17.49-15.11c6.22-4.59,12.68-8.84,19.29-12.82s13.39-7.71,20.24-11.29,13.8-6.94,20.8-10.21q21-9.72,42.68-18.06c14.43-5.57,28.93-10.81,43.73-15.55Z" transform="translate(-67.73 -109.27)"/><path class="cls-13" d="M167,401.81c-3-2.37-5.82-4.78-8.6-7.29s-5.44-5.09-8-7.76-5.06-5.45-7.42-8.32a89.84,89.84,0,0,1-6.44-9,89.34,89.34,0,0,0,7.54,8q4,3.74,8.33,7.12t8.82,6.45c3,2,6.09,4.05,9.14,5.83Z" transform="translate(-67.73 -109.27)"/><path class="cls-11" d="M323.24,298.81c-15.12-.51-34.36,23.29-33.42,40.47s4.47,43.53,34.83,35.06,26.85-29.41,23.3-46.59S337.35,299.28,323.24,298.81Z" transform="translate(-67.73 -109.27)"/></g><g id="задняя_нога" data-name="задняя нога"><path class="cls-9" d="M384.57,411.77c2.14,5.49,4.51,11,7,16.58a55.8,55.8,0,0,0,27.55-3.29C414.5,419.46,404.81,413.46,384.57,411.77Z" transform="translate(-67.73 -109.27)"/><path class="cls-11" d="M438.45,401.45c-8.25,4.05-26.08,10.28-54.75,8.09.28.75.58,1.49.87,2.23,20.24,1.69,29.93,7.69,34.57,13.29a45.5,45.5,0,0,0,13.92-8.72A113.73,113.73,0,0,0,438.45,401.45Z" transform="translate(-67.73 -109.27)"/><path class="cls-1" d="M443.91,266c-5.22-13.63-21.26-6.35-28.67,0s-28.93,38.13-36.73,75.8c-5.89,28.47-2.06,48.44,5.19,67.76,28.67,2.19,46.5-4,54.75-8.09a213.88,213.88,0,0,0,7.84-41.57C449.59,324.22,451.58,286,443.91,266Z" transform="translate(-67.73 -109.27)"/><path class="cls-11" d="M446.06,343.75s-4-11.3-16.71-6.35S404.88,363,406.29,371s14.28,20.92,22.83,21.41S448.41,367.51,446.06,343.75Z" transform="translate(-67.73 -109.27)"/><path class="cls-13" d="M398.88,431.86a48.6,48.6,0,0,1-7.82-.56L389.5,431l-.65-1.45c-9.79-21.94-17-40.64-16.17-65.25A116.09,116.09,0,0,1,378.59,332L383,318.57l-.61,9.39c-.48,7.38-1.19,14.74-2.32,22-4.72,30.42,2.34,50.26,13.57,75.58,5.28.53,23.17,1.26,36.94-11.05,1.5-3.38,9.81-23.31,12.73-54.92,2.87-31.16,5.26-69.08-1.27-89.86a40.93,40.93,0,0,1-1.49-6.93L439,250.71h0a106.33,106.33,0,0,1,13,46.2c.85,19.78-.8,42.94-2.68,63.25-3.3,35.78-13.1,56.6-13.51,57.47l-.25.52-.43.39C422.77,429.88,407.81,431.86,398.88,431.86Z" transform="translate(-67.73 -109.27)"/></g><g id="средняя_нога" data-name="средняя нога"><path class="cls-4" d="M230.65,377.78c-1.8-25.42-8.63-29.75-14.88-27.9-10.63,15.38-9.39,36.1-8.06,49.4,2.11,21.17,14.58,42.35,23,55.29a66.07,66.07,0,0,1,7.18,15.22c3.68-.1,7.33-.32,10.86-.63a82.72,82.72,0,0,0-.63-13C246.63,447.36,234.18,427.63,230.65,377.78Z" transform="translate(-67.73 -109.27)"/><path class="cls-9" d="M237.94,469.79A76.44,76.44,0,0,1,241.12,483a59.12,59.12,0,0,0,7,.07c.4-4.85.61-9.66.65-13.95C245.27,469.47,241.62,469.69,237.94,469.79Z" transform="translate(-67.73 -109.27)"/><path class="cls-2" d="M251.12,413.51a21.17,21.17,0,0,1,10.05-11.34c.12-16.08-1.15-33.2-5.46-48.3a76.16,76.16,0,0,0-10.38-22.25c-14.57,3.18-23.81,9.93-29.56,18.26,6.25-1.85,13.08,2.48,14.88,27.9,3.53,49.85,16,69.58,17.52,78.42a82.72,82.72,0,0,1,.63,13c2.61-.22,5.16-.49,7.62-.79.14-6.55.6-13.11,1.3-19.31C246.5,441.8,246.39,426.61,251.12,413.51Z" transform="translate(-67.73 -109.27)"/><path class="cls-10" d="M261.17,402.17a21.17,21.17,0,0,0-10.05,11.34c-4.73,13.1-4.62,28.29,6.6,35.55,0-.32.07-.64.1-1A412.57,412.57,0,0,0,261.17,402.17Z" transform="translate(-67.73 -109.27)"/><path class="cls-10" d="M256.42,468.37c-2.46.3-5,.57-7.62.79,0,4.29-.25,9.1-.65,13.95a71.72,71.72,0,0,0,8.44-.92C256.36,477.7,256.31,473,256.42,468.37Z" transform="translate(-67.73 -109.27)"/><path class="cls-11" d="M256.59,482.19a76.68,76.68,0,0,0,16.29-4.56s1.51-4,4-12.65c-5.35,1.12-12.45,2.41-20.43,3.39C256.31,473,256.36,477.7,256.59,482.19Z" transform="translate(-67.73 -109.27)"/><path class="cls-1" d="M288.87,396.71c.77-15.57.21-30.56-1.63-42.14-3.53-22.12-14.6-27.43-37.65-23.76-1.48.23-2.89.51-4.26.81a76.16,76.16,0,0,1,10.38,22.25c4.31,15.1,5.58,32.22,5.46,48.3C269.66,397.41,281.09,396.6,288.87,396.71Z" transform="translate(-67.73 -109.27)"/><path class="cls-11" d="M288.87,396.71c-7.78-.11-19.21.7-27.7,5.46a412.57,412.57,0,0,1-3.35,45.93c0,.32-.06.64-.1,1,5,3.25,12.26,4.91,22.29,4.1,1.07-4.26,2.23-9.11,3.46-14.59A251.71,251.71,0,0,0,288.87,396.71Z" transform="translate(-67.73 -109.27)"/><path class="cls-1" d="M257.72,449.06c-.7,6.2-1.16,12.76-1.3,19.31,8-1,15.08-2.27,20.43-3.39.93-3.26,2-7.19,3.16-11.82C270,454,262.74,452.31,257.72,449.06Z" transform="translate(-67.73 -109.27)"/><path class="cls-13" d="M245.22,486.18c-1.42,0-2.86,0-4.31-.14l-2.47-.18-.3-2.46c0-.14-1.92-15-9.89-27.18-14.19-21.69-21.89-40.21-23.53-56.64l0-.16a90.09,90.09,0,0,1,2.53-31.87l5.18-19.68s-2.16,24.35-2.49,32.47a119.8,119.8,0,0,0,.77,18.64c1.55,15.45,8.93,33.09,22.58,53.95,6.8,10.38,9.52,22.16,10.43,27.23a74.07,74.07,0,0,0,26.81-4.81c1.26-3.63,5.13-15.54,10-37.43,5.83-26,7.15-68.37,3.73-82.87s-7.21-22.89-7.21-22.89l8.47,13.94c3.7,8.12,5.74,14.33,6.28,23.24,1.33,21.83-.62,48.53-5.41,69.89-6.1,27.19-10.53,39-10.71,39.47l-.45,1.17-1.16.51A79.38,79.38,0,0,1,245.22,486.18Z" transform="translate(-67.73 -109.27)"/></g><g id="голова"><path class="cls-14" d="M138,161.85c-4.87-11.44-14.47-28.77-9.59-43a28.32,28.32,0,0,0-.94-3.32c-2.55,8.36-5.41,20.06-4,26.8,1.85,8.87,4.71,26.76,2,38,5.73,4.87,11.09,5.91,15.63,4.56C141.46,178.56,141.24,169.45,138,161.85Z" transform="translate(-67.73 -109.27)"/><path class="cls-15" d="M127.48,115.54c-1.17-3.16-2.63-3.84-5.42-4.26-4.71-.71-26.82,32.23-2.12,63.29a41,41,0,0,0,5.5,5.77c2.74-11.24-.12-29.13-2-38C122.07,135.6,124.93,123.9,127.48,115.54Z" transform="translate(-67.73 -109.27)"/><path class="cls-16" d="M148.78,148.45s-16.9-9.17-19-22.11c-.5-3.11-.94-5.55-1.37-7.48-4.88,14.22,4.72,31.55,9.59,43,3.23,7.6,3.45,16.71,3.06,23.05C154.09,181,160.32,157.49,148.78,148.45Z" transform="translate(-67.73 -109.27)"/><path class="cls-3" d="M148.78,148.45s-16.9-9.17-19-22.11-3-14.36-7.73-15.06-26.82,32.23-2.12,63.29S165.62,161.63,148.78,148.45Z" transform="translate(-67.73 -109.27)"/><path class="cls-9" d="M70.76,227.62c-.4,7.19,3.31,11.27,7.73,13.59a132.14,132.14,0,0,1,7.1-16.28c3.92-7.34,13.65-13.68,18.71-16.62,1.38-3.46,3-7.25,5-11.42C95.17,206.49,72,204.88,70.76,227.62Z" transform="translate(-67.73 -109.27)"/><path class="cls-9" d="M86.49,252.09c-.36.66-.72,1.34-1.08,2.07A30.33,30.33,0,0,1,87.29,257a68.82,68.82,0,0,1,3.29-8C89.21,250.1,87.84,251.14,86.49,252.09Z" transform="translate(-67.73 -109.27)"/><path class="cls-9" d="M143.71,222.34c-1.88-13.89-7.77-25.18-17.89-23.06-3.61.75-8.6,4.19-13.52,8.3-1.71,11-6.15,26.16-14.66,35A72,72,0,0,1,90.58,249a68.82,68.82,0,0,0-3.29,8,35.89,35.89,0,0,0,5.59,7.53c6.59,6.4,24,3.25,34.19-3.39S145.59,236.22,143.71,222.34Z" transform="translate(-67.73 -109.27)"/><path class="cls-4" d="M235.47,221.4c-2.05-5.31-4.9-14.25-7.19-21.71a27.05,27.05,0,0,1-8.4-7.82c-4.94-6.53-4.59-1.77-12.88-7s-1.76-14.56-5.12-16.68c-2.79-1.76-8.93,2-17.18,2.79a27.6,27.6,0,0,1-5.23,0c-10.88-1-15.88-7.94-17.36-14.64-1.05-4.77,3.22-9.54,5.79-11.9-.57.25-.9.43-.9.43-45.79-.72-54.88,29.13-56.6,43.66a16.66,16.66,0,0,1,2.76,9.19,62.55,62.55,0,0,1-.86,9.8c4.92-4.11,9.91-7.55,13.52-8.3,10.12-2.12,16,9.17,17.89,23.06s-6.45,32.14-16.64,38.77-27.6,9.79-34.19,3.39A35.89,35.89,0,0,1,87.29,257c-.22.63-.33,1-.33,1s.11-.36.33-1a30.33,30.33,0,0,0-1.88-2.81,55.22,55.22,0,0,0-5.47,18.63c20.09,25.88,49.11,4.76,51.71-.11,2.77-5.18,9.57-13.51,9.57-13.51s29.78-10.24,44.72,0S215.05,268,228,263,239.47,231.75,235.47,221.4Z" transform="translate(-67.73 -109.27)"/><path class="cls-10" d="M110.4,188.59a46.31,46.31,0,0,0-.34,7.75c-.26.19-.53.36-.8.55-2,4.17-3.58,8-5,11.42-5.06,2.94-14.79,9.28-18.71,16.62a132.14,132.14,0,0,0-7.1,16.28,30.68,30.68,0,0,0,11.93,3c1,.05,1.52,0,1.52,0a41.82,41.82,0,0,0-5.45,7.86c1.35-1,2.72-2,4.09-3.09a41.84,41.84,0,0,1,6.77-10.31A41.84,41.84,0,0,0,90.58,249a72,72,0,0,0,7.06-6.39c8.51-8.87,13-24,14.66-35a62.55,62.55,0,0,0,.86-9.8A16.66,16.66,0,0,0,110.4,188.59Z" transform="translate(-67.73 -109.27)"/><path class="cls-2" d="M281.82,250.1l-8.2-10.53s-2-4.66-5-11.5c-3.92-8.84-9.57-21.34-14.84-32.12a34.59,34.59,0,0,1-10,4.74c-6.65,1.87-11.55,1.1-15.43-1,2.29,7.46,5.14,16.4,7.19,21.71,4,10.35,5.4,36.67-7.51,41.61s-27.08,6.4-42-3.84-44.72,0-44.72,0-6.8,8.33-9.57,13.51c-2.6,4.87-31.62,26-51.71.11a56.32,56.32,0,0,0-.35,6.75c.27,34.68,35.65,51,56.12,52.09s31-10.23,56.11-14.82c7.67-1.41,17.25-.62,27.32.87,45.92-6.56,60.68-36.05,63.79-42.38a13.41,13.41,0,0,0,1.09-4.61C284.72,262.55,281.82,250.1,281.82,250.1Z" transform="translate(-67.73 -109.27)"/><path class="cls-9" d="M306.85,288c.1-.4.14-.62.14-.62.58,0,1.18.07,1.79.08-2.24-31.55-27.48-56.32-36.85-64.48a13.63,13.63,0,0,0-1.64,1.5,7,7,0,0,0-1.71,3.62c3,6.84,5,11.5,5,11.5l8.2,10.53s2.9,12.45,2.2,20.59A45.91,45.91,0,0,0,306.85,288Z" transform="translate(-67.73 -109.27)"/><path class="cls-1" d="M270.29,224.45a13.63,13.63,0,0,1,1.64-1.5c2.62-2,6.13-3.06,11.39-2.84a69.24,69.24,0,0,1,13.76,2.28c-.5-.34-.79-.52-.79-.52s2.26-33.25-20.58-53.41c-3.06,3.15-6.13,6.85-7.6,10.22A42.16,42.16,0,0,1,253.74,196c5.27,10.78,10.92,23.28,14.84,32.12A7,7,0,0,1,270.29,224.45Z" transform="translate(-67.73 -109.27)"/><path class="cls-1" d="M284,270.69a13.41,13.41,0,0,1-1.09,4.61c-3.11,6.33-17.87,35.82-63.79,42.38,22.86,3.4,48.33,10.46,60.21,4.07A55.31,55.31,0,0,0,306.85,288,45.91,45.91,0,0,1,284,270.69Z" transform="translate(-67.73 -109.27)"/><path class="cls-10" d="M283.32,220.11c-5.26-.22-8.77.8-11.39,2.84,9.37,8.16,34.61,32.93,36.85,64.48,7.6.14,17.52-2.5,21.79-7.53C321,247.79,296.91,228.69,283.32,220.11Z" transform="translate(-67.73 -109.27)"/><path class="cls-11" d="M327.71,248c-9.53-11-26.79-22.95-30.63-25.56a69.24,69.24,0,0,0-13.76-2.28c13.59,8.58,37.66,27.68,47.25,59.79.1-.12.22-.24.31-.36C335.29,273.86,338.47,260.34,327.71,248Z" transform="translate(-67.73 -109.27)"/><path class="cls-9" d="M202.57,154.34s1.84-.94-3.43-9.88c-3.12-5.3.29-12.24,3.59-17-13.51-8.39-22.72-3.78-24.85,1.6-3,7.59,3.36,13.65,3.36,13.65l-.18,1.18c-4.93-2.54-10.94-.36-13.16.63-2.57,2.36-6.84,7.13-5.79,11.9,1.48,6.7,6.48,13.66,17.36,14.64a27.6,27.6,0,0,0,5.23,0C182.53,158.46,202.57,154.34,202.57,154.34Z" transform="translate(-67.73 -109.27)"/><path class="cls-10" d="M242.76,175.9c-8.47-11.61-22.11-11.21-24-22-1-5.8-4.23-13.48-7-19.36a56.41,56.41,0,0,0-9-7.07c-3.3,4.78-6.71,11.72-3.59,17,5.27,8.94,3.43,9.88,3.43,9.88s-20,4.12-17.87,16.67c8.25-.76,14.39-4.55,17.18-2.79,3.36,2.12-3.17,11.47,5.12,16.68s7.94.44,12.88,7a27.05,27.05,0,0,0,8.4,7.82c3.88,2.1,8.78,2.87,15.43,1a34.59,34.59,0,0,0,10-4.74C249.46,187.19,245.42,179.55,242.76,175.9Z" transform="translate(-67.73 -109.27)"/><path class="cls-11" d="M272.65,165.93c-26.12-19.77-49.41-18.36-51.36-20.83a96.19,96.19,0,0,0-9.55-10.59c2.79,5.88,6,13.56,7,19.36,1.89,10.82,15.53,10.42,24,22,2.66,3.65,6.7,11.29,11,20a42.16,42.16,0,0,0,14.37-17.27c1.47-3.37,4.54-7.07,7.6-10.22C274.73,167.59,273.72,166.74,272.65,165.93Z" transform="translate(-67.73 -109.27)"/><path class="cls-13" d="M180.19,173.4a32.25,32.25,0,0,1-13.14-2.53,13.21,13.21,0,0,1-7.77-8.36c-2.38-8.17,3.84-17.65,4.1-18l5,3.31c-1.38,2.1-4.67,8.52-3.33,13.07.58,2,2.38,3.39,4.43,4.55s4.87,2.52,12.33,3,20.07-1.18,20.07-1.18A44.32,44.32,0,0,1,180.19,173.4Z" transform="translate(-67.73 -109.27)"/><path class="cls-13" d="M303.71,290.21c-1.58-.6-15.6-6-20.36-14.12-1.83-3.12-2.26-7.39-2.76-12.34v-.13a68.06,68.06,0,0,0-5.42-20.53l-6.57-15,8.86,11.73a46.06,46.06,0,0,1,9.1,23.15v.14c.43,4.24.8,7.91,2,9.9,3.13,5.33,13.54,10.13,17.29,11.54Z" transform="translate(-67.73 -109.27)"/><path class="cls-17" d="M151.41,287c-8.12,10.95,4.59,24.53,10.41,26.47s13.42.18,19.06-5.82,6.88-15.7,6.88-15.7C187.41,275.16,159.53,276,151.41,287Z" transform="translate(-67.73 -109.27)"/><path class="cls-18" d="M170.39,255.19a27.4,27.4,0,0,1-4.68-.15c-.69-.09-1.33-.19-2-.29-11.11-1.8-15-5-21.15-1.3-5.29,3.15-12.4,12.18-12.78,21.41a16.65,16.65,0,0,0,1,6.48,31.26,31.26,0,0,0,2.85,6c1-3.22,3.19-6.31,6.19-9.24,5.67-5.55,16.83-6.21,24.12-4.8s11.18-1.18,11.65-8.78C175.82,260.79,173.16,257.54,170.39,255.19Z" transform="translate(-67.73 -109.27)"/><path class="cls-7" d="M182.12,261.37a81.94,81.94,0,0,1-8.74-6.35c-1,.07-2,.13-3,.17,2.77,2.35,5.43,5.6,5.2,9.31-.47,7.6-4.35,10.19-11.65,8.78s-18.45-.75-24.12,4.8c-3,2.93-5.24,6-6.19,9.24a23.1,23.1,0,0,0,1.8,2.52,53.58,53.58,0,0,0,10.16-.39c4.06-.52,8.12-3.7,12.7-3.7s8.83,3.7,16.06,4.46,13.41-1.28,15.71-10.67A16,16,0,0,0,182.12,261.37Z" transform="translate(-67.73 -109.27)"/><path class="cls-6" d="M195.73,264.33a11.4,11.4,0,0,0-.91-1.32c-4.76-6-9.7-8.5-13.94-8.5-2,0-4.53.27-7.1.47l-.4,0a81.94,81.94,0,0,0,8.74,6.35,16,16,0,0,1,7.94,18.17c-2.3,9.39-8.47,11.42-15.71,10.67s-11.47-4.46-16.06-4.46-8.64,3.18-12.7,3.7a53.58,53.58,0,0,1-10.16.39,15.37,15.37,0,0,0,9.45,5.61c3.88.71,9.88,0,15.36,1.06s15.7,6.18,21.52,4.94,13.77-5.82,16.06-12.52C200,282.67,199.64,270.79,195.73,264.33Z" transform="translate(-67.73 -109.27)"/><path class="cls-3" d="M195.73,264.33a11.4,11.4,0,0,0-.91-1.32c-4.76-6-9.7-8.5-13.94-8.5-2,0-4.53.27-7.1.47a39,39,0,0,1-8.07.06c-.69-.09-1.33-.19-2-.29-11.11-1.8-15-5-21.15-1.3-5.29,3.15-12.4,12.18-12.78,21.41a16.65,16.65,0,0,0,1,6.48c4,11.11,10.22,13.41,14.1,14.11s9.88,0,15.36,1.06,15.7,6.18,21.52,4.94,13.77-5.82,16.06-12.52C200,282.67,199.64,270.79,195.73,264.33Z" transform="translate(-67.73 -109.27)"/><path class="cls-13" d="M180.35,264.93c-3.14-2-5.33,3.61-3.39,5.9s5,5.82,7.1,5.87S188.12,269.85,180.35,264.93Z" transform="translate(-67.73 -109.27)"/><path class="cls-13" d="M148.08,261.91c-2-2.65-6.45,2-7.73,3.56s-3.92,5.21-1.06,5.8c1.42.3,2.2.08,4.43-2C145.28,267.76,152.28,267.42,148.08,261.91Z" transform="translate(-67.73 -109.27)"/><path class="cls-13" d="M330,246c-9.39-10.81-25.71-22.31-30.61-25.67.15-7.74-.83-38.56-24.9-56.78-19.56-14.8-37.85-18.12-46.64-19.71a45.35,45.35,0,0,1-4.46-.94c-17.46-22.06-30.81-23.81-37.22-22.87-5.18.75-9.41,3.79-11,7.93a14.6,14.6,0,0,0-.23,10.44,16.17,16.17,0,0,0-9,3.53c-19.61-.11-34.79,5.33-45,16.12-8.49,8.95-11.81,19.69-13.09,27.56a56.93,56.93,0,0,0-.75,9.2c-4,2.57-8.84,4.33-13.57,6-11.57,4.2-24.69,9-25.68,26.63a16.35,16.35,0,0,0,4.43,12.8c4,4.1,9.72,5.79,14,6.49a55,55,0,0,0-4.73,8.65,58.75,58.75,0,0,0-4.9,24.16c.11,14.35,6.08,27.22,17,37.2a60.69,60.69,0,0,0,14.48,9.63l13.14,6.39-.54-.51C114,325.94,107,320,99.81,314.19,91,307,82.72,295.86,82.59,279.51,82.42,258.89,94,246.42,94.11,246.3l.77-1.87a16.47,16.47,0,0,0,.36-3.22l-3.36,0c-2.84.07-11.14-.76-15.36-5.14a10.46,10.46,0,0,1-2.76-8.3c.77-13.71,10.48-17.24,21.74-21.32,5.63-2,11.46-4.15,16.33-7.71l1.33-1-.11-1.64V196c-.08-1.7-.57-20.47,12.21-33.88,9.24-9.71,23.29-14.47,41.69-14.19l1.27,0,.9-.9s3.56-3.42,7.74-2.55l13.5,3.08-7.6-7.44s-4.33-4.32-2.09-10c.67-1.68,2.68-3.67,6.33-4.2,4.16-.61,15.61.22,31.94,21,1.23,1.56,3.29,1.94,7.8,2.76,9,1.63,25.68,4.66,44.1,18.6,24.47,18.52,22.48,53,22.46,53.34l-.12,1.74,1.46,1c.2.13,20.43,13.61,30.8,25.54,9.48,10.92,6.92,22.84,3.07,27.79-3.62,4.66-14.11,7.25-21.27,6.66l-2.66-.21-.53,2.61a59.28,59.28,0,0,1-9.95,19.16,91.18,91.18,0,0,1-18,17.17,61.43,61.43,0,0,0,14.82-8c6.77-5.15,14.8-14,18-23.41.15-.45.29-.87.4-1.25h0c8.69,0,19.35-3.11,24-9.07C338.27,274.92,341.81,259.6,330,246Z" transform="translate(-67.73 -109.27)"/><path class="cls-14" d="M311.12,148.36a7.68,7.68,0,0,0-1.2.59c-2.83,8.17-8.25,19.39-17.68,24.45-8.06,4.31-17.28,8.4-25,10.06-.2,7.63,5.34,13.06,8.43,15.82,7.12-2.15,16.14-5.55,21-10.06,10.28-9.61,17.65-22.93,20-40.4A7,7,0,0,0,311.12,148.36Z" transform="translate(-67.73 -109.27)"/><path class="cls-16" d="M316.63,148.82c-2.33,17.47-9.7,30.79-20,40.4-4.83,4.51-13.85,7.91-21,10.06l1.2,1.06c3.36,3,7.94,6.7,23.65-1.59s19.76-37.41,20.12-43.06A7.08,7.08,0,0,0,316.63,148.82Z" transform="translate(-67.73 -109.27)"/><path class="cls-15" d="M287.2,165.93c-4.79,2.62-9.4,2.15-13.07,4.2a9.6,9.6,0,0,0-3.42,3.27,22.56,22.56,0,0,0-2.6,5.28,16.67,16.67,0,0,0-.86,4.78c7.71-1.66,16.93-5.75,25-10.06,9.43-5.06,14.85-16.28,17.68-24.45C304.87,151.88,293.11,162.69,287.2,165.93Z" transform="translate(-67.73 -109.27)"/><path class="cls-3" d="M311.12,148.36c-4.06,1.49-17.47,14-23.92,17.57-4.79,2.62-9.4,2.15-13.07,4.2a9.6,9.6,0,0,0-3.42,3.27,22.71,22.71,0,0,0-2.6,5.27c-3.78,11.43,5.85,19.05,8.77,21.67,3.36,3,7.94,6.7,23.65-1.59s19.76-37.41,20.12-43.06A7.33,7.33,0,0,0,311.12,148.36Z" transform="translate(-67.73 -109.27)"/><path class="cls-12" d="M110.06,196.34s-1.35,12.11-4.35,17.76-5.92,13.52-13.77,30.13" transform="translate(-67.73 -109.27)"/></g><g id="глаза"><path class="cls-13" d="M130.41,234.48c-.71-4.26-6.62-10.5-15.09-4.14s-14.64,13.32-13.5,19.32,9.09,13.32,17.83,10.59S132,244,130.41,234.48Z" transform="translate(-67.73 -109.27)"/><path class="cls-13" d="M221.12,244.23c9.39-4.29,19.06,5.87,21.64,12.22s4,16,1,20-9,3.3-13.65,2.36-9.41-.71-12.24-1.41-8.7-5.42-7.06-14.36S215.94,246.6,221.12,244.23Z" transform="translate(-67.73 -109.27)"/><path class="cls-13" d="M127.82,242.87c-.72-1.94-2.6-4.51-11.54-4.77-12.16-.35-13.66,5.59-13.72,8.54-.09,5,3.51,3,12.32,3.46C124.59,250.62,132.29,254.87,127.82,242.87Z" transform="translate(-67.73 -109.27)"/><path class="cls-13" d="M221.41,256c9.51-1.25,16.63,2.87,19,5.94s6.2,7.13,3,8.72-8.42.58-13.08-.2-9.36-1-12.15-1.54-8.9-3-7-6.92S216.17,256.74,221.41,256Z" transform="translate(-67.73 -109.27)"/><path class="cls-13" d="M101.47,246.93a14.45,14.45,0,0,1,6.63-3.41,20.33,20.33,0,0,1,7.33-.43,19.83,19.83,0,0,1,7,2.14,15.15,15.15,0,0,1,5.64,4.87,60.73,60.73,0,0,1-7-.36c-2.17-.24-4.26-.44-6.35-.69s-4.19-.53-6.36-.84S104,247.52,101.47,246.93Z" transform="translate(-67.73 -109.27)"/><path class="cls-13" d="M211.24,264.57a18.33,18.33,0,0,1,8.4-3.86,23.82,23.82,0,0,1,9.33,0,24.62,24.62,0,0,1,4.53,1.36,23.35,23.35,0,0,1,4.12,2.3,18.35,18.35,0,0,1,6.09,7c-1.58-.4-2.88-1-4.26-1.45-.69-.22-1.35-.44-2-.69s-1.33-.39-2-.62c-1.27-.45-2.59-.74-3.84-1.13l-1.93-.44a15.64,15.64,0,0,0-1.92-.42c-2.57-.52-5.19-.93-7.92-1.22S214.36,264.88,211.24,264.57Z" transform="translate(-67.73 -109.27)"/></g></svg>