<svg width="126" height="47" viewBox="0 0 126 47" fill="none" xmlns="http://www.w3.org/2000/svg">
<g clip-path="url(#clip0_64_79)">
<path d="M55.5133 46.3904C54.6805 46.3904 53.6037 46.3172 52.3109 46.1726C50.1069 45.9096 49.4623 45.6397 49.1469 45.4324C49.0319 45.3575 48.9466 45.246 48.903 45.1154C48.4761 43.8334 48.1416 42.0203 47.9081 39.7263C47.706 37.8295 47.605 35.9815 47.605 34.2363C47.605 30.4949 48.1608 29.5178 48.6451 29.0824C48.8978 28.8437 49.4379 28.5598 52.5305 28.3491C53.9853 28.262 55.2763 28.2184 56.3723 28.2184C57.219 28.2184 58.3881 28.363 59.9422 28.6591C60.1112 28.6922 60.2593 28.7932 60.3482 28.9413C60.4371 29.0893 60.4614 29.267 60.4127 29.4325L59.9405 31.021C59.8621 31.2822 59.6234 31.4564 59.3568 31.4564C59.3377 31.4564 59.3185 31.4564 59.2993 31.4529L56.7956 31.2195C56.2625 31.223 55.4767 31.3136 54.4592 31.4895C52.8911 31.7751 52.5967 31.9894 52.5688 32.0138C52.5566 32.0277 52.3562 32.2663 52.1193 33.3967C51.9869 34.1004 51.9172 34.7066 51.9172 35.1821C51.9172 36.6835 52.0966 39.2247 52.4503 42.7413C53.9923 43.1158 55.1805 43.3057 55.9872 43.3057C56.1876 43.3057 56.2956 43.2935 56.3444 43.2848C56.3984 43.2256 56.5831 42.966 56.7399 42.0899C56.8444 41.489 56.8984 40.8585 56.9019 40.2158C56.8758 40.0904 56.8584 39.9528 56.8409 39.8134C56.8165 39.6079 56.7852 39.3327 56.7451 38.9861L55.7206 38.899C55.5412 38.8833 55.3774 38.7893 55.2729 38.6412C55.1683 38.4932 55.1352 38.3068 55.1823 38.1326L55.5046 36.9308C55.576 36.6643 55.8182 36.4797 56.0935 36.4797C57.5204 36.4797 58.6651 36.5163 59.4962 36.5894C60.3743 36.6782 61.1253 36.7531 61.1253 37.4324C61.1253 37.9532 61.0103 38.9722 60.7751 40.5485C60.3046 43.7847 60.0189 44.5963 59.822 44.9429C59.5276 45.4672 58.8446 45.84 57.6703 46.1152C56.8653 46.2963 56.1423 46.3886 55.5133 46.3886V46.3904Z" fill="#36B44A"/>
<path d="M56.3705 28.8281C57.172 28.8281 58.3236 28.9709 59.8255 29.2566L59.3533 30.845L56.82 30.6082C56.2468 30.6082 55.4244 30.7022 54.3512 30.8869C53.0915 31.1168 52.351 31.3484 52.1297 31.5836C51.9085 31.8204 51.7046 32.3813 51.5182 33.2679C51.3753 34.0255 51.3039 34.663 51.3039 35.1768C51.3039 36.7653 51.4973 39.4477 51.8841 43.2238C53.6874 43.6819 55.0533 43.9101 55.9837 43.9101C56.2695 43.9101 56.4698 43.8892 56.5848 43.8456C56.9141 43.7028 57.165 43.1524 57.3357 42.1927C57.4507 41.5343 57.5082 40.855 57.5082 40.1548C57.5082 40.1688 57.5082 40.1757 57.5065 40.1757C57.4943 40.1757 57.4229 39.5887 57.2939 38.4165L55.7694 38.2876L56.0917 37.0858C57.5082 37.0858 58.6251 37.1224 59.4405 37.1938C60.1565 37.2652 60.5137 37.3436 60.5137 37.4307C60.5137 37.9166 60.3987 38.9251 60.1705 40.4562C59.8272 42.8163 59.5328 44.2114 59.2906 44.6399C59.0903 44.997 58.5031 45.2913 57.5309 45.5195C56.7712 45.6919 56.0987 45.7773 55.5133 45.7773C54.6979 45.7773 53.6525 45.7059 52.3789 45.563C50.8195 45.3767 49.8526 45.1624 49.4814 44.9186C49.0668 43.6732 48.7444 41.921 48.5162 39.6619C48.3158 37.7738 48.2148 35.9641 48.2148 34.2328C48.2148 31.601 48.4936 30.0334 49.0528 29.5335C49.3107 29.2896 50.4833 29.098 52.574 28.9535C54.0184 28.8681 55.2851 28.8246 56.374 28.8246M56.374 27.6054C55.2676 27.6054 53.9644 27.6489 52.5026 27.736C52.4991 27.736 52.4956 27.736 52.4921 27.736C50.4885 27.8736 48.9013 28.0269 48.2374 28.6278C47.6241 29.1799 46.9987 30.2807 46.9987 34.2311C46.9987 35.9972 47.1015 37.8679 47.3053 39.7891C47.544 42.1544 47.8785 43.9606 48.3263 45.3035C48.4134 45.5648 48.5859 45.7877 48.8159 45.9375C49.2096 46.1953 49.9257 46.4966 52.2378 46.7718C53.5793 46.9216 54.6491 46.9948 55.5168 46.9948C56.1911 46.9948 56.9594 46.8972 57.8044 46.7074C57.8079 46.7074 57.8114 46.7074 57.8149 46.7056C59.1669 46.3886 59.9753 45.9201 60.3604 45.2356C60.6061 44.8019 60.9022 43.9414 61.3831 40.6303C61.702 38.4949 61.7386 37.7808 61.7386 37.429C61.7386 37.1154 61.6183 36.3578 60.512 36.1157C60.2855 36.0651 59.9753 36.0216 59.5676 35.9798C59.5624 35.9798 59.5572 35.9798 59.552 35.9798C58.7035 35.9049 57.5413 35.8683 56.097 35.8683C55.5447 35.8683 55.062 36.2393 54.9192 36.7723L54.5968 37.9741C54.5028 38.3225 54.569 38.6952 54.7763 38.9896C54.9836 39.2857 55.3112 39.4738 55.6719 39.5034L56.198 39.5487C56.212 39.6758 56.2259 39.7873 56.2381 39.8831C56.2573 40.0416 56.2729 40.1601 56.2834 40.2384C56.2869 40.2593 56.2886 40.2785 56.2921 40.2977C56.2851 40.8759 56.2329 41.442 56.1388 41.9837C56.0778 42.3286 56.0133 42.5515 55.9663 42.6891C55.2816 42.6856 54.2919 42.5358 53.0166 42.2415C52.6925 38.9687 52.5287 36.5946 52.5287 35.1751C52.5287 34.7397 52.5932 34.1771 52.7204 33.503C52.8476 32.8986 52.9556 32.5973 53.0148 32.4649C53.1873 32.397 53.6142 32.2576 54.5707 32.0834C55.5342 31.9162 56.2747 31.8292 56.773 31.8239L59.2453 32.0538C59.2837 32.0573 59.322 32.0591 59.3586 32.0591C59.8935 32.0591 60.3726 31.7072 60.5277 31.1864L60.9998 29.5979C61.0974 29.267 61.0521 28.9117 60.8726 28.6173C60.6932 28.323 60.397 28.1174 60.059 28.053C58.4665 27.7499 57.2608 27.6019 56.3757 27.6019L56.374 27.6054Z" fill="#231F20"/>
<path d="M62.8484 46.1971C62.6811 46.1971 62.5225 46.1292 62.4058 46.0072C62.2751 45.8696 62.2159 45.6798 62.2455 45.4934C62.8606 41.564 63.3832 38.6883 63.8014 36.9483C64.5523 33.7678 65.5454 30.9914 66.7529 28.6958C66.8522 28.5076 67.0421 28.384 67.2529 28.3718L72.9206 28.0078C72.9346 28.0078 72.9468 28.0078 72.9607 28.0078C73.2308 28.0078 73.4712 28.1872 73.5461 28.4502C74.1228 30.4602 74.7222 32.5242 75.3267 34.5829C75.9662 36.9814 76.3704 39.1168 76.5289 40.9456L76.9366 45.4934C76.9523 45.6746 76.8879 45.8522 76.7589 45.9794C76.6439 46.0926 76.4889 46.157 76.3286 46.157C76.3094 46.157 76.2902 46.157 76.2711 46.1535L73.1158 45.854C72.8178 45.8261 72.5844 45.5857 72.5652 45.2879L72.2864 41.0414L68.4011 41.5378C68.375 41.5413 68.3488 41.5431 68.3244 41.5431C68.2739 41.5431 68.2234 41.5361 68.1746 41.5239L66.9114 41.2052L65.934 45.469C65.8765 45.7233 65.6622 45.9132 65.4026 45.9393L62.9128 46.1971C62.8919 46.1988 62.871 46.2006 62.8501 46.2006L62.8484 46.1971ZM67.8749 36.1697C67.8453 36.4606 67.7948 36.8838 67.7251 37.4255C67.7251 37.4325 67.5892 38.2807 67.5892 38.2807L71.8944 37.8923C71.8979 37.8331 71.8996 37.7582 71.8996 37.6711C71.8996 37.3367 71.7829 36.5006 71.2236 34.4175C70.8037 32.8586 70.525 32.0661 70.3525 31.6637L69.0579 31.7822C68.5091 33.4647 68.1119 34.9383 67.8767 36.1714L67.8749 36.1697Z" fill="#36B44A"/>
<path d="M72.9572 28.6139C73.5444 30.6604 74.1385 32.7053 74.7396 34.7519C75.3686 37.112 75.7624 39.1934 75.9209 40.9961L76.3286 45.5456L73.1733 45.2461L72.851 40.3534L68.3227 40.9334L66.455 40.4614L65.3381 45.3331L62.8484 45.5909C63.4634 41.6563 63.9791 38.8241 64.3938 37.0928C65.1378 33.9454 66.103 31.2422 67.2913 28.9814L72.959 28.6173M66.8627 38.96L72.337 38.4671C72.452 38.4531 72.5095 38.1884 72.5095 37.6728C72.5095 37.1294 72.276 35.992 71.8125 34.2607C71.3474 32.5294 70.978 31.4495 70.7079 31.021L68.605 31.2143C67.9743 33.1024 67.5317 34.7257 67.2738 36.0861C67.2442 36.3717 67.1954 36.795 67.124 37.3523L66.8661 38.9617M72.9625 27.3998C72.9363 27.3998 72.9102 27.3998 72.8841 27.4016L67.2163 27.7656C66.793 27.7935 66.4131 28.0391 66.2145 28.4153C64.9845 30.7562 63.9739 33.5814 63.209 36.8141C62.7892 38.5664 62.263 41.4577 61.6462 45.4046C61.587 45.779 61.7054 46.1587 61.9668 46.4322C62.1985 46.676 62.5191 46.8119 62.8519 46.8119C62.8937 46.8119 62.9355 46.8102 62.9773 46.8049L65.4671 46.5472C65.9863 46.4932 66.4131 46.1152 66.5299 45.6066L67.3679 41.9506L68.0265 42.1178C68.1241 42.1422 68.2251 42.1544 68.3262 42.1544C68.3785 42.1544 68.429 42.1509 68.4813 42.144L71.7237 41.7294L71.9606 45.3279C72.0007 45.9253 72.4659 46.4043 73.0618 46.4618L76.2171 46.7614C76.2554 46.7649 76.2938 46.7666 76.3321 46.7666C76.6527 46.7666 76.9628 46.6395 77.1928 46.4113C77.4506 46.1553 77.5796 45.7982 77.5482 45.4376L77.1405 40.8881C76.9785 39.0262 76.569 36.8559 75.9244 34.4384C75.9226 34.4279 75.9192 34.4192 75.9157 34.4087C75.3111 32.35 74.7117 30.2877 74.1368 28.2794C73.9869 27.7534 73.5061 27.3964 72.9642 27.3964L72.9625 27.3998ZM69.5144 32.3569L69.9518 32.3169C70.1068 32.7471 70.3298 33.4473 70.6347 34.5794C71.0512 36.1296 71.2062 36.9326 71.262 37.3419L68.3175 37.6066L68.3279 37.5457C68.3297 37.5335 68.3314 37.5195 68.3332 37.5074C68.4011 36.9796 68.4499 36.5616 68.4813 36.2637C68.6938 35.156 69.0405 33.8444 69.5144 32.3569Z" fill="#231F20"/>
<path d="M94.9556 46.3904C94.8128 46.3904 94.6734 46.3399 94.5619 46.2458C94.4242 46.1291 94.3441 45.9567 94.3458 45.7755C94.3598 43.9206 94.2883 41.7102 94.1315 39.2091C93.9974 36.7201 93.8231 34.9138 93.6141 33.8183L92.0634 37.5997C91.3595 39.2857 90.8421 40.7349 90.5197 41.9071C90.464 42.1109 90.3072 42.2711 90.1033 42.3303L87.9132 42.9748C87.8558 42.9922 87.7983 42.9992 87.7408 42.9992C87.4777 42.9992 87.2355 42.8285 87.1571 42.5655C86.5943 40.6948 86.0612 39.1882 85.5733 38.0874C84.9008 36.5267 84.3729 35.2169 83.9948 34.1736C83.9669 34.5655 83.9181 35.1594 83.8415 36.0686C83.7282 37.3541 83.5732 39.2613 83.3693 41.9001C83.2439 43.5774 83.2003 44.7096 83.2404 45.2635C83.2648 45.5874 83.0296 45.8731 82.7072 45.9131L79.5519 46.2998C79.5275 46.3033 79.5031 46.305 79.477 46.305C79.3185 46.305 79.1651 46.2423 79.0501 46.1309C78.9177 46.0002 78.8515 45.8173 78.8707 45.6327L79.7296 37.4133C79.9596 35.628 80.2837 32.9509 80.6966 29.4447C80.728 29.1764 80.9318 28.9605 81.1984 28.9152L85.2981 28.2063C85.3329 28.2011 85.3677 28.1976 85.4026 28.1976C85.6448 28.1976 85.8695 28.3439 85.9654 28.5738C87.0944 31.2944 87.7286 32.8359 87.9028 33.287C88.3157 34.3408 88.6746 35.3458 88.9778 36.2898C89.3228 35.3719 89.7514 34.3809 90.2619 33.3271C91.4972 30.7737 92.2289 29.2287 92.4398 28.7393C92.5373 28.5128 92.7586 28.37 92.999 28.37C93.0199 28.37 93.0426 28.37 93.0653 28.3735L96.6509 28.7602C96.9488 28.7915 97.1788 29.0354 97.1945 29.3349C97.2642 30.7127 97.5377 33.2592 98.0064 36.9064C98.4228 40.1078 98.6267 42.6996 98.6127 44.6068V45.246C98.6127 45.5421 98.4002 45.7947 98.1092 45.847L95.0619 46.3834C95.0271 46.3904 94.9922 46.3921 94.9556 46.3921V46.3904Z" fill="#36B44A"/>
<path d="M85.4043 28.8072C86.5211 31.4965 87.164 33.0641 87.3365 33.5065C88.0369 35.2953 88.5736 36.9117 88.9464 38.3556C89.3175 36.9831 89.9413 35.3946 90.8142 33.5918C92.0599 31.0175 92.7882 29.4795 93.0042 28.9779L96.5882 29.3646C96.6596 30.7667 96.9314 33.3062 97.4036 36.9831C97.8182 40.174 98.0186 42.7118 98.0047 44.6016V45.246L94.9574 45.7825C94.9713 43.9084 94.8999 41.705 94.7431 39.1725C94.5706 35.9972 94.3354 33.9228 94.0357 32.9491L93.2621 33.078C92.675 34.508 92.0878 35.9398 91.5024 37.3697C90.7863 39.0871 90.2636 40.545 89.9361 41.7468L87.746 42.3913C87.1728 40.4893 86.6361 38.9722 86.1361 37.8418C85.2057 35.682 84.561 34.029 84.2039 32.8847L83.4303 33.3776V33.4212C83.4303 33.6493 83.3658 34.515 83.2369 36.0181C83.1219 37.3192 82.9651 39.2665 82.7647 41.8548C82.6358 43.5722 82.5922 44.7235 82.6358 45.3105L79.4805 45.6972L80.3394 37.4777C80.5677 35.7046 80.89 33.0502 81.3047 29.5161L85.4043 28.8072ZM85.4043 27.588C85.3346 27.588 85.2667 27.5932 85.1952 27.6054L81.0956 28.3143C80.5642 28.4066 80.1548 28.8368 80.092 29.3733C79.6791 32.8882 79.355 35.5618 79.1285 37.321C79.1285 37.3314 79.1268 37.3401 79.1251 37.3506L78.2661 45.57C78.2278 45.9393 78.3602 46.3068 78.625 46.5663C78.855 46.791 79.1616 46.9164 79.4805 46.9164C79.5293 46.9164 79.5798 46.9129 79.6286 46.9077L82.7839 46.521C83.4303 46.4426 83.899 45.8696 83.8519 45.2217C83.8258 44.8611 83.8258 44.0024 83.9809 41.9471C84.1481 39.7751 84.284 38.0943 84.3886 36.8472C84.5802 37.3105 84.7875 37.8017 85.014 38.326C85.014 38.3295 85.0175 38.3329 85.0193 38.3382C85.4967 39.4163 86.0211 40.8986 86.5769 42.7449C86.7354 43.2726 87.2198 43.6123 87.7442 43.6123C87.8575 43.6123 87.9742 43.5966 88.0892 43.5618L90.2793 42.9173C90.6852 42.7989 91.0006 42.4766 91.1121 42.0691C91.4257 40.9212 91.9362 39.4982 92.6279 37.8383L93.3092 36.1784C93.3841 36.9831 93.459 37.9863 93.5252 39.2369C93.5252 39.2404 93.5252 39.2439 93.5252 39.2474C93.6803 41.7364 93.7517 43.931 93.7378 45.7721C93.7343 46.1344 93.8928 46.4792 94.1699 46.7126C94.3911 46.9007 94.6716 47.0018 94.9574 47.0018C95.0271 47.0018 95.0985 46.9965 95.1682 46.9826L98.2155 46.4461C98.7992 46.3434 99.2243 45.8365 99.2243 45.246V44.6068C99.2382 42.6717 99.0326 40.0538 98.6127 36.8281C98.1458 33.1982 97.8757 30.6674 97.806 29.3053C97.7764 28.7062 97.3147 28.2185 96.7188 28.1558L93.1349 27.7691C93.0914 27.7639 93.0478 27.7621 93.0042 27.7621C92.5216 27.7621 92.0773 28.0495 91.8839 28.5006C91.6784 28.9814 90.9483 30.5176 89.7165 33.0641C89.4691 33.5744 89.2409 34.0691 89.0318 34.5498C88.8576 34.0656 88.6711 33.5709 88.4725 33.0641C88.2983 32.6112 87.6623 31.0663 86.5316 28.3421C86.3399 27.8806 85.8922 27.5897 85.4061 27.5897L85.4043 27.588Z" fill="#231F20"/>
<path d="M103.498 46.3051C102.244 46.3051 101.803 46.2145 101.559 45.901C101.325 45.6118 100.977 45.1137 100.977 34.8372C100.977 29.6067 101.355 29.227 101.606 28.9762C101.878 28.7044 102.216 28.3683 108.971 28.3683C109.175 28.3683 109.382 28.3683 109.594 28.3683L111.447 28.3892C111.631 28.3909 111.804 28.4763 111.919 28.6208C112.034 28.7654 112.076 28.9535 112.035 29.1329L111.628 30.9357C111.567 31.2056 111.332 31.4007 111.056 31.4112C109.553 31.4686 108.561 31.5104 108.108 31.5383C106.519 31.6724 106.035 31.8309 105.901 31.8936C105.817 32.08 105.585 32.8708 105.528 36.0007L105.629 36.1296L110.593 36.3944C110.764 36.4031 110.92 36.4832 111.03 36.6138C111.138 36.7445 111.187 36.9152 111.164 37.0841L110.971 38.5211C110.933 38.8085 110.697 39.0279 110.408 39.0471L105.415 39.3937C105.404 41.8688 105.573 42.6317 105.653 42.8529C105.927 42.9278 106.864 43.0689 110.028 43.0689C110.345 43.0689 110.676 43.0689 111.025 43.0654H111.03C111.211 43.0654 111.382 43.1455 111.497 43.2831C111.614 43.4224 111.663 43.6071 111.629 43.7865L111.33 45.3959C111.279 45.6658 111.055 45.8679 110.781 45.8923C107.561 46.164 105.11 46.3016 103.496 46.3016L103.498 46.3051Z" fill="#36B44A"/>
<path d="M108.971 28.9779C109.175 28.9779 109.382 28.9779 109.594 28.9779L111.441 28.9988L111.034 30.8015C109.516 30.859 108.53 30.9026 108.072 30.9304C106.54 31.0593 105.667 31.2387 105.453 31.4669C105.138 31.824 104.96 33.4055 104.916 36.2097L105.324 36.7253L110.561 37.004L110.368 38.441L104.808 38.8276V39.2788C104.794 41.6389 104.93 42.9835 105.216 43.3127C105.423 43.5583 107.028 43.682 110.03 43.682C110.349 43.682 110.683 43.682 111.034 43.6785L110.734 45.2879C107.514 45.5596 105.103 45.6954 103.5 45.6954C102.613 45.6954 102.127 45.638 102.04 45.523C101.738 45.1503 101.589 41.5883 101.589 34.8372C101.589 31.5192 101.738 29.7077 102.04 29.4081C102.327 29.1207 104.638 28.9779 108.971 28.9779ZM108.971 27.7587C106.788 27.7587 105.085 27.7952 103.911 27.8684C102.23 27.9729 101.59 28.1314 101.176 28.5459C100.702 29.0197 100.367 29.7478 100.367 34.8372C100.367 45.314 100.712 45.8226 101.08 46.2789C101.505 46.8224 102.174 46.9147 103.496 46.9147C105.127 46.9147 107.596 46.7753 110.833 46.5019C111.38 46.4549 111.828 46.0508 111.929 45.5108L112.222 43.9415C112.241 43.8561 112.25 43.769 112.25 43.6785C112.25 43.0044 111.704 42.4592 111.03 42.4592H111.025C111.023 42.4592 111.021 42.4592 111.02 42.4592C110.673 42.4627 110.344 42.4627 110.028 42.4627C107.716 42.4627 106.645 42.3861 106.159 42.3251C106.103 41.9698 106.037 41.2783 106.026 39.965L110.45 39.6585C111.027 39.6184 111.497 39.1777 111.574 38.6047L111.767 37.1677C111.812 36.8298 111.715 36.4902 111.497 36.2272C111.279 35.9659 110.962 35.8057 110.622 35.7882L106.145 35.5496C106.193 33.6163 106.312 32.7541 106.39 32.3831C106.655 32.3221 107.176 32.2315 108.155 32.1479C108.608 32.1201 109.589 32.0783 111.075 32.0208C111.628 31.9999 112.096 31.6097 112.218 31.0715L112.626 29.2688C112.708 28.91 112.623 28.5338 112.394 28.2446C112.166 27.9555 111.819 27.7848 111.452 27.7813L109.605 27.7604C109.605 27.7604 109.598 27.7604 109.594 27.7604C109.38 27.7604 109.171 27.7604 108.967 27.7604L108.971 27.7587Z" fill="#231F20"/>
<path d="M118.32 46.2406C116.968 46.2406 115.663 46.1587 114.442 45.9985C114.156 45.9602 113.935 45.7285 113.914 45.4411L113.741 43.2099C113.725 43.0096 113.811 42.8128 113.968 42.6874C114.077 42.6003 114.212 42.5533 114.349 42.5533C114.408 42.5533 114.469 42.562 114.527 42.5794C115.494 42.8755 116.51 43.0253 117.546 43.0253C118.088 43.0253 118.708 42.9504 119.391 42.8023C120.365 42.616 120.735 42.407 120.869 42.3007C120.883 42.2589 120.907 42.1492 120.907 41.9175C120.907 41.3236 120.831 40.5903 120.679 39.7386C120.536 39.6428 120.252 39.479 119.702 39.2334C118.761 38.8206 117.811 38.4061 116.853 37.9916C114.773 37.0249 114.318 36.5807 114.135 36.2428C113.94 35.8927 113.739 35.1472 113.739 32.3029C113.739 31.8901 113.837 31.3014 114.037 30.5019C114.299 29.4952 114.551 28.95 114.884 28.6783C115.194 28.417 115.797 28.1523 117.87 28.1523C119.543 28.1523 121.644 28.2829 124.117 28.5424C124.294 28.5616 124.455 28.6574 124.556 28.8037C124.657 28.95 124.688 29.1364 124.641 29.3088L124.19 30.9618C124.117 31.2283 123.876 31.4111 123.601 31.4111C123.592 31.4111 123.583 31.4111 123.575 31.4111C122.224 31.3537 121.259 31.3258 120.702 31.3258C119.393 31.3258 118.661 31.4529 118.254 31.5905L117.917 33.9907C118.128 34.1283 118.586 34.3826 119.562 34.7867C121.437 35.5566 122.496 36.0059 122.799 36.1557C124.13 36.8054 124.883 37.3959 125.164 38.0159C125.315 38.3382 125.39 38.7527 125.39 39.277C125.39 40.6443 125.08 42.2241 124.467 43.978C124.463 44.0494 124.449 44.1191 124.421 44.187C124.385 44.2776 124.327 44.356 124.256 44.417C124.092 44.666 123.869 45.0005 123.59 45.4115C123.51 45.53 123.392 45.6153 123.254 45.6554C121.918 46.042 120.257 46.2371 118.32 46.2371V46.2406Z" fill="#36B44A"/>
<path d="M117.869 28.7637C119.529 28.7637 121.588 28.8925 124.05 29.1503L123.599 30.8033C122.24 30.7458 121.273 30.7179 120.702 30.7179C119.256 30.7179 118.255 30.8677 117.696 31.169L117.266 34.238C117.466 34.4958 118.153 34.8686 119.327 35.3545C121.174 36.1122 122.238 36.5633 122.526 36.7061C123.698 37.2792 124.394 37.8 124.608 38.272C124.723 38.5158 124.78 38.852 124.78 39.2805C124.78 40.6251 124.465 42.177 123.836 43.9362L123.857 43.9571H123.836L123.815 43.978C123.658 44.2219 123.414 44.5859 123.085 45.0719C121.798 45.4446 120.209 45.6292 118.32 45.6292C116.989 45.6292 115.722 45.5509 114.52 45.3924L114.347 43.1611C115.377 43.4764 116.443 43.6332 117.546 43.6332C118.133 43.6332 118.792 43.5548 119.52 43.398C120.423 43.2256 121.022 42.9974 121.324 42.7118C121.453 42.5829 121.517 42.3181 121.517 41.9175C121.517 41.2313 121.423 40.3935 121.238 39.4076C121.052 39.2213 120.623 38.9791 119.951 38.6778C119.006 38.2633 118.055 37.8487 117.095 37.4325C115.649 36.7601 114.841 36.2672 114.67 35.9519C114.455 35.5653 114.347 34.3495 114.347 32.3047C114.347 31.9476 114.44 31.3972 114.626 30.6517C114.841 29.8226 115.055 29.321 115.271 29.1503C115.572 28.8925 116.436 28.7637 117.869 28.7637ZM117.869 27.5444C116.321 27.5444 115.154 27.6576 114.494 28.2115C114.05 28.5755 113.745 29.1974 113.447 30.3469C113.447 30.3504 113.447 30.3539 113.445 30.3556C113.229 31.2161 113.13 31.8344 113.13 32.3047C113.13 35.419 113.374 36.1261 113.604 36.5407C113.882 37.0475 114.482 37.5613 116.583 38.5385C116.593 38.5437 116.602 38.5472 116.612 38.5524C117.6 38.9791 118.559 39.3972 119.461 39.7943C119.771 39.9336 119.984 40.0399 120.127 40.1183C120.242 40.8185 120.299 41.4229 120.299 41.9175V41.9262C120.13 41.9976 119.822 42.1004 119.294 42.2014C119.283 42.2032 119.275 42.2049 119.264 42.2067C118.623 42.3443 118.045 42.4157 117.546 42.4157C116.571 42.4157 115.614 42.2746 114.705 41.9976C114.588 41.9611 114.468 41.9436 114.347 41.9436C114.074 41.9436 113.804 42.036 113.584 42.2119C113.269 42.4644 113.1 42.8546 113.131 43.2569L113.304 45.4882C113.347 46.0629 113.79 46.528 114.361 46.6029C115.609 46.7666 116.94 46.8485 118.32 46.8485C120.315 46.8485 122.033 46.6447 123.425 46.2423C123.698 46.164 123.937 45.9898 124.096 45.7546C124.355 45.3697 124.568 45.0545 124.726 44.8106C124.836 44.7009 124.925 44.5685 124.986 44.4187C125.028 44.3177 125.056 44.2114 125.068 44.1069C125.686 42.3181 126 40.6931 126 39.277C126 38.6639 125.908 38.1675 125.716 37.7564C125.366 36.9953 124.549 36.3317 123.066 35.6088C122.859 35.5061 122.287 35.2483 119.792 34.2224C119.203 33.9785 118.822 33.7974 118.578 33.6685L118.801 32.0765C119.17 32.0016 119.766 31.9337 120.702 31.9337C121.249 31.9337 122.207 31.9615 123.549 32.019C123.566 32.019 123.583 32.019 123.601 32.019C124.148 32.019 124.632 31.6533 124.777 31.1203L125.228 29.4673C125.322 29.1225 125.26 28.7532 125.057 28.4571C124.855 28.161 124.533 27.9694 124.178 27.9328C121.686 27.6716 119.564 27.5392 117.869 27.5392V27.5444Z" fill="#231F20"/>
<path d="M68.7601 23.2718C68.5388 23.2718 68.3315 23.1517 68.2252 22.9531C67.4986 21.6154 66.8157 19.6263 66.1989 17.0398C65.8853 15.6133 65.5716 14.1972 65.258 12.7846C64.4635 16.6723 63.6325 19.9485 62.784 22.5385C62.7056 22.7807 62.4843 22.9461 62.2317 22.9583L57.787 23.1499C57.7783 23.1499 57.7696 23.1499 57.7609 23.1499C57.463 23.1499 57.2068 22.9339 57.1598 22.6361C55.9141 14.8242 55.1509 8.73674 54.8948 4.54255C54.8774 4.24645 55.0743 3.97996 55.3635 3.91203L58.125 3.26409C58.1703 3.25364 58.2174 3.24841 58.2644 3.24841C58.416 3.24841 58.5624 3.30415 58.6756 3.40866L59.8046 4.44153C59.9266 4.553 59.998 4.7115 60.0032 4.87697C60.0747 7.94249 60.2454 12.2168 60.512 17.5989L63.5366 6.46024C63.6028 6.21465 63.8154 6.03699 64.068 6.01261L67.4307 5.70083C67.4499 5.69909 67.469 5.69735 67.4882 5.69735C67.7408 5.69735 67.9708 5.85411 68.0597 6.09621C68.6155 7.59936 69.1347 9.76787 69.6016 12.546C69.856 14.2895 70.1191 16.0574 70.3874 17.8218L70.41 17.7957L71.7812 6.02132C71.7934 5.91333 71.8352 5.80882 71.9014 5.72173L73.0548 4.20813C73.1559 4.07576 73.3075 3.99041 73.473 3.97125L76.7642 3.6107C76.7869 3.60896 76.8078 3.60722 76.8304 3.60722C77.0134 3.60722 77.1876 3.68908 77.3043 3.83365C77.435 3.99563 77.4751 4.21161 77.4089 4.40843C77.3793 4.49901 77.1196 5.40124 75.7154 10.3966C75.6962 10.4872 75.5394 11.271 74.9296 14.3731C74.5776 16.1445 74.0776 18.8233 73.4416 22.3365C73.3929 22.603 73.1751 22.805 72.905 22.8347L68.821 23.2666C68.8001 23.2684 68.7775 23.2701 68.7566 23.2701L68.7601 23.2718Z" fill="#36B44A"/>
<path d="M58.2627 3.85978L59.3917 4.89265C59.4718 8.31872 59.6722 13.1696 59.9928 19.4452L60.7855 18.9174L64.1238 6.62223L67.4864 6.31045C68.03 7.78399 68.5353 9.89676 69.0005 12.6505C69.3211 14.8434 69.6486 17.0363 69.9849 19.2309L70.9937 18.0535L72.3876 6.09447L73.541 4.58087L76.8322 4.22032C76.7851 4.36489 76.2154 6.37316 75.1265 10.2469C75.1108 10.3113 74.8459 11.6472 74.3337 14.2564C73.9818 16.033 73.4852 18.691 72.844 22.2285L68.7601 22.6605C68.0544 21.3646 67.3993 19.4434 66.7913 16.8969C66.3435 14.8643 65.894 12.8386 65.4462 10.8216L64.8939 11.494C64.0297 15.8972 63.1324 19.5148 62.2038 22.3487L57.7592 22.5403C56.5099 14.7128 55.7572 8.70016 55.5011 4.50597L58.2627 3.85804M58.2627 2.63879C58.1703 2.63879 58.0763 2.64924 57.9839 2.67189L55.2224 3.31983C54.6439 3.45569 54.2484 3.98867 54.2833 4.58087C54.5411 8.79248 55.3043 14.8991 56.5535 22.7319C56.6476 23.3258 57.1615 23.7595 57.7574 23.7595C57.7748 23.7595 57.7923 23.7595 57.8114 23.7595L62.256 23.5679C62.7631 23.5453 63.2039 23.2126 63.3624 22.7301C64.0106 20.7532 64.6482 18.3809 65.265 15.6481C65.3765 16.1532 65.488 16.6566 65.5995 17.1617C65.5995 17.1687 65.603 17.1756 65.6048 17.1826C66.2442 19.858 66.9254 21.8401 67.6886 23.244C67.9029 23.6394 68.3158 23.8815 68.7601 23.8815C68.8036 23.8815 68.8454 23.8797 68.889 23.8745L72.973 23.4425C73.5113 23.3851 73.9487 22.9792 74.0445 22.448C74.6787 18.9418 75.1787 16.2664 75.5289 14.495C76.1056 11.5584 76.2746 10.7084 76.3095 10.5412C77.6876 5.63639 77.9542 4.70976 77.9908 4.59655C78.1215 4.20291 78.0413 3.77269 77.78 3.45046C77.5483 3.16307 77.1981 3.00108 76.8322 3.00108C76.7869 3.00108 76.7416 3.00282 76.6963 3.00805L73.4051 3.3686C73.0723 3.40517 72.7709 3.57587 72.567 3.84236L71.4136 5.35596C71.2812 5.53014 71.1976 5.73567 71.1732 5.95339L70.3212 13.2688C70.2828 13.0041 70.2428 12.7393 70.2044 12.4746C70.2044 12.4659 70.201 12.4572 70.201 12.4485C69.7201 9.59369 69.2044 7.44957 68.6294 5.88894C68.4517 5.40647 67.9917 5.09121 67.4864 5.09121C67.4481 5.09121 67.4115 5.09295 67.3732 5.09644L64.0106 5.40821C63.5035 5.45524 63.0802 5.8123 62.946 6.30348L60.9354 13.7078C60.7733 10.1162 60.6636 7.15521 60.6113 4.86478C60.6043 4.5321 60.4597 4.21858 60.2158 3.99389L59.0868 2.96102C58.8603 2.75375 58.5641 2.64054 58.2627 2.64054V2.63879Z" fill="#231F20"/>
<path d="M80.9928 23.176C80.8447 23.176 80.7001 23.122 80.5886 23.0228C80.4666 22.9148 80.3917 22.7615 80.3847 22.5978C80.3847 22.5978 79.6878 8.72803 79.6878 8.7228C79.6721 7.81185 79.6233 6.31219 79.5449 4.26909C79.5327 3.94338 79.7784 3.66469 80.1025 3.63857L84.6656 3.25363C84.683 3.25363 84.7004 3.25189 84.7161 3.25189C84.8746 3.25189 85.0297 3.3146 85.143 3.42607C85.2701 3.55148 85.3364 3.72391 85.3242 3.90157L84.7004 13.1713C84.4774 16.7402 84.3572 19.8388 84.3415 22.3783C84.3398 22.697 84.0923 22.9601 83.7752 22.9827L81.0363 23.1743C81.0224 23.1743 81.0085 23.1743 80.9928 23.1743V23.176Z" fill="#36B44A"/>
<path d="M84.7161 3.85974C84.507 6.94965 84.2997 10.0396 84.0924 13.1295C83.8676 16.7314 83.7474 19.8126 83.7317 22.3748L80.9928 22.5664L80.2959 8.71058C80.2802 7.78222 80.2314 6.293 80.1513 4.24468L84.7144 3.85974M84.7144 2.6405C84.6795 2.6405 84.6464 2.6405 84.6116 2.64399L80.0485 3.02892C79.3986 3.08291 78.9073 3.64028 78.9317 4.2917C79.0118 6.32958 79.0588 7.82402 79.0745 8.73148C79.0745 8.74542 79.0745 8.75761 79.0745 8.77154L79.7714 22.6273C79.7871 22.9548 79.9352 23.2614 80.1809 23.4791C80.4039 23.6776 80.6931 23.7856 80.9893 23.7856C81.0172 23.7856 81.0468 23.7856 81.0747 23.7821L83.8136 23.5905C84.4495 23.5453 84.9443 23.0192 84.9478 22.3818C84.9635 19.8544 85.0837 16.7663 85.305 13.2044C85.5123 10.1214 85.7214 7.03151 85.9288 3.94161C85.9531 3.58629 85.8207 3.23967 85.5664 2.9906C85.3381 2.76591 85.0297 2.6405 84.7109 2.6405H84.7144Z" fill="#231F20"/>
<path d="M93.52 23.4878C93.3736 23.4878 93.229 23.4338 93.1175 23.3363C92.9746 23.2109 92.8997 23.0245 92.9119 22.8347C92.9589 22.1815 92.9833 21.4517 92.9833 20.6697C92.9833 19.6699 92.9467 18.1458 92.8753 16.141C92.8039 14.1206 92.7673 12.5791 92.7673 11.5567C92.7673 10.6283 92.6749 9.35858 92.4937 7.78053L92.0686 7.52275L88.1171 7.0577C87.9533 7.03854 87.8035 6.95319 87.7024 6.82256C87.6014 6.69018 87.5595 6.52472 87.5839 6.36099L87.8958 4.31963C87.9394 4.0305 88.185 3.81278 88.4777 3.80233C92.9467 3.64382 97.3077 3.45745 101.44 3.25018C101.451 3.25018 101.461 3.25018 101.472 3.25018C101.778 3.25018 102.04 3.47836 102.076 3.78665L102.366 6.16417C102.406 6.49336 102.176 6.79469 101.846 6.84172L97.7398 7.4287L97.4645 7.8293C97.259 14.2512 97.0673 19.1404 96.8931 22.3592C96.8774 22.6379 96.677 22.8695 96.4035 22.9235L93.6402 23.4756C93.6001 23.4844 93.56 23.4878 93.52 23.4878Z" fill="#36B44A"/>
<path d="M101.472 3.85978L101.761 6.2373L97.3896 6.86086L96.8617 7.62898C96.6526 14.1606 96.461 19.0585 96.285 22.3243L93.5234 22.8765C93.5722 22.2041 93.5949 21.4674 93.5949 20.6679C93.5949 19.6594 93.5583 18.1423 93.4868 16.1166C93.4154 14.091 93.3788 12.5704 93.3788 11.5549C93.3788 10.5395 93.2743 9.15825 93.0669 7.413L92.2742 6.93227L88.1902 6.45154L88.5021 4.41018C93.0025 4.24994 97.3251 4.06531 101.474 3.85804M101.474 2.6388C101.453 2.6388 101.432 2.6388 101.411 2.6388C97.2816 2.84607 92.9241 3.03244 88.4586 3.19094C87.8731 3.21184 87.3853 3.64554 87.2964 4.22555L86.9846 6.26691C86.934 6.59436 87.0194 6.92704 87.2198 7.19005C87.4201 7.45306 87.7181 7.62375 88.0474 7.66207L91.8682 8.11145L91.924 8.14454C92.0808 9.5606 92.1592 10.7067 92.1592 11.5532C92.1592 12.5808 92.1958 14.131 92.2672 16.1584C92.3387 18.158 92.3753 19.6751 92.3753 20.6661C92.3753 21.436 92.3526 22.1484 92.3056 22.7876C92.2777 23.1673 92.4293 23.5383 92.715 23.7891C92.9398 23.9877 93.2272 24.094 93.5217 24.094C93.6018 24.094 93.682 24.087 93.7604 24.0696L96.5219 23.5174C97.0673 23.4077 97.4697 22.9426 97.5011 22.387C97.6736 19.1926 97.8635 14.3609 98.0674 8.02088L98.09 7.98778L101.932 7.43912C102.589 7.34507 103.05 6.74416 102.97 6.08577L102.681 3.70825C102.606 3.0934 102.083 2.63531 101.472 2.63531L101.474 2.6388Z" fill="#231F20"/>
<path d="M49.0058 11.1804C48.2339 9.1321 46.9551 7.41297 45.3731 5.91679C42.1777 2.89307 38.3795 1.55365 33.9923 1.87762C33.8617 1.88807 33.7153 1.82537 33.5916 1.76789C32.9382 1.45959 32.3145 1.07118 31.6367 0.839522C29.0459 -0.043557 26.3819 -0.205542 23.6918 0.249061C21.8206 0.564322 20.08 1.24361 18.6217 2.49072C18.2036 2.84779 17.8098 2.9819 17.261 2.97494C14.6162 2.94358 12.3024 3.91027 10.2012 5.44477C8.63658 6.58737 7.39954 8.00866 6.79148 9.86887C6.5824 10.5064 6.2775 10.8774 5.67989 11.1944C3.83304 12.1732 2.5629 13.7199 1.71788 15.615C0.670759 17.9699 0.381536 20.3979 1.04535 22.9147C1.07497 23.028 1.04361 23.1743 0.998312 23.2892C0.804916 23.7856 0.552282 24.2646 0.402444 24.7732C-0.081917 26.4331 0.0504982 28.0808 0.599324 29.7024C1.85901 33.4194 4.32263 35.7185 8.31077 36.2114C8.3944 36.2219 8.5059 36.2829 8.54249 36.3525C9.43455 38.1065 10.9068 39.1411 12.7205 39.7734C13.9227 40.1914 15.1545 40.4666 16.4526 40.6564C16.4282 40.7888 16.409 40.8968 16.3863 41.0048C16.1755 42.029 15.9473 43.0479 15.7556 44.0755C15.5953 44.9377 15.8549 45.3958 16.6547 45.7511C16.8568 45.84 17.0728 45.9183 17.2889 45.9514C18.5137 46.1465 19.3587 46.0681 19.9476 44.6974C20.4389 43.553 21.0226 42.4487 21.5784 41.3323C22.9165 38.6395 24.6745 36.2376 26.652 33.9855C26.7583 33.8635 26.9377 33.7573 27.0946 33.7364C27.3158 33.7085 27.5458 33.7799 27.7741 33.7886C30.1366 33.8722 32.379 33.4037 34.4732 32.2942C36.5535 31.1917 38.3533 29.7599 39.6165 27.7412C39.8378 27.3876 40.0643 27.2849 40.4615 27.2883C44.3991 27.3336 46.9952 24.0957 47.5666 21.6084C47.605 21.4412 47.6799 21.2705 47.7757 21.1277C49.856 18.0169 50.3404 14.704 49.011 11.1787L49.0058 11.1804Z" fill="#35B44A"/>
<path d="M48.9035 11.1765C48.1317 9.1282 46.8529 7.40907 45.2708 5.91288C42.0755 2.88917 38.2772 1.54974 33.8901 1.87371C33.7594 1.88416 33.6131 1.82146 33.4894 1.76398C32.836 1.45569 32.2123 1.06727 31.5345 0.835616C28.9437 -0.0474632 26.2797 -0.209448 23.5896 0.245155C21.7184 0.560416 19.9778 1.23971 18.5195 2.48682C18.1013 2.84388 17.7076 2.978 17.1588 2.97103C14.5139 2.93968 12.2002 3.90636 10.0989 5.44086C8.53434 6.58347 7.29731 8.00475 6.68924 9.86497C6.48017 10.5025 6.17526 10.8735 5.57765 11.1905C3.73081 12.1693 2.46067 13.716 1.61565 15.6111C0.568525 17.966 0.279302 20.394 0.94312 22.9108C0.97274 23.0241 0.941378 23.1704 0.896078 23.2853C0.702682 23.7817 0.450048 24.2607 0.30021 24.7693C-0.184151 26.4292 -0.0517357 28.0769 0.49709 29.6985C1.75678 33.4155 4.2204 35.7146 8.20853 36.2075C8.29216 36.218 8.40367 36.279 8.44026 36.3486C9.33232 38.1026 10.8046 39.1372 12.6183 39.7695C13.8205 40.1875 15.0523 40.4627 16.3503 40.6525C16.3259 40.7849 16.3068 40.8929 16.2841 41.0009C16.0733 42.0251 15.8451 43.044 15.6534 44.0716C15.4931 44.9338 15.7527 45.3919 16.5524 45.7472C16.7545 45.8361 16.9706 45.9144 17.1866 45.9475C18.4115 46.1426 19.2565 46.0642 19.8454 44.6935C20.3367 43.5491 20.9204 42.4448 21.4762 41.3284C22.8143 38.6356 24.5723 36.2337 26.5498 33.9816C26.6561 33.8596 26.8355 33.7534 26.9923 33.7325C27.2136 33.7046 27.4436 33.776 27.6718 33.7847C30.0344 33.8683 32.2767 33.3998 34.371 32.2903C36.4513 31.1878 38.2511 29.756 39.5143 27.7373C39.7355 27.3837 39.962 27.281 40.3593 27.2844C44.2969 27.3297 46.8929 24.0918 47.4644 21.6045C47.5027 21.4373 47.5777 21.2666 47.6735 21.1238C49.7538 18.013 50.2382 14.7001 48.9088 11.1748L48.9035 11.1765ZM48.177 16.0239C48.0882 16.9348 47.8355 17.8092 47.4487 18.6644C47.2588 18.2412 47.0916 17.8353 46.8964 17.4452C46.7727 17.1978 46.6229 16.9575 46.4521 16.7415C46.1524 16.3583 45.7238 16.2869 45.3945 16.536C45.0583 16.7903 45.0304 17.1909 45.2987 17.6037C46.1594 18.9292 46.4643 20.3487 45.8789 21.8571C45.3614 23.1878 44.4903 24.2677 43.2724 25.0271C41.605 26.0669 39.8192 26.0948 37.9967 25.5305C37.3939 25.3441 36.8189 25.0672 36.2335 24.8251C35.8711 24.6753 35.4355 24.8024 35.277 25.1159C35.101 25.4625 35.2143 25.9346 35.5819 26.0948C36.3241 26.4188 37.089 26.694 37.8469 26.9849C37.9601 27.0284 38.0803 27.051 38.2337 27.0946C38.1831 27.1886 38.15 27.2653 38.1047 27.3332C37.5925 28.1013 35.4042 30.3116 34.0626 30.9787C32.0084 32.2677 28.2224 32.3826 28.2032 32.3513C28.3966 32.1701 28.5935 31.9907 28.7852 31.8078C28.982 31.6197 29.0326 31.2383 28.8984 30.984C28.7555 30.714 28.4349 30.5328 28.1457 30.6077C27.9715 30.653 27.7938 30.7523 27.6579 30.8725C26.1647 32.1753 24.9016 33.6889 23.6802 35.2391C23.2255 35.8156 22.7533 36.38 22.2933 36.953C21.4832 37.9598 20.6608 38.9561 20.0545 40.1074C19.9255 40.353 19.753 40.5759 19.5718 40.8215C19.5091 40.9051 19.4447 40.9922 19.3819 41.0845C19.375 41.0688 19.3697 41.0514 19.3645 41.0357C19.0631 41.3092 18.5212 41.6401 18.3609 40.7048C18.1327 39.3863 16.4026 39.6354 12.7821 38.3517C11.3116 37.8291 10.4387 36.8955 9.91948 35.9689C9.8341 35.894 9.7557 35.786 9.68949 35.6362C9.35671 34.8786 9.11976 34.1017 9.15809 33.2848V33.2814C9.1668 33.0863 9.19293 32.8877 9.23649 32.6874C9.29225 32.4314 9.18771 32.2485 8.98386 32.1701C8.72774 32.0708 8.41761 31.9454 8.17717 32.0099C7.86878 32.0917 7.67539 32.3704 7.69281 32.7606C7.71894 33.3981 7.69978 34.0356 7.69978 34.6922C6.89309 34.5999 6.10209 34.2933 5.35986 33.8614C3.86845 32.9922 2.87882 31.6998 2.18364 30.1409C1.65224 28.9496 1.35779 27.7234 1.43271 26.4136C1.53202 24.6666 2.31083 23.2627 3.60362 22.1253C3.92769 21.8397 4.29706 21.6045 4.65946 21.3676C5.05496 21.1099 5.1926 20.7197 4.99049 20.3435C4.81278 20.0125 4.38069 19.861 4.00087 20.0996C3.45727 20.4393 2.96071 20.8556 2.44673 21.2422C2.3509 21.3136 2.26901 21.4025 2.17493 21.4896C1.17485 18.9466 3.61059 13.4495 6.11951 12.5055C6.21011 13.1343 6.27806 13.7735 6.40002 14.4005C6.50456 14.937 7.04293 15.1652 7.47676 14.8935C7.78341 14.7019 7.86181 14.4075 7.78515 14.0783C7.17535 11.4465 8.03082 9.26057 9.90379 7.44564C11.566 5.8345 13.5522 4.7877 15.8625 4.43238C18.0282 4.0997 20.0248 4.55082 21.8334 5.79444C22.3491 6.14802 22.8927 5.98081 23.0112 5.42519C23.0756 5.12212 22.9659 4.88175 22.7184 4.69887C21.8752 4.07531 20.9291 3.66426 19.936 3.34725C19.8872 3.33158 19.8384 3.31416 19.7426 3.28107C20.4778 2.74982 21.241 2.3736 22.0477 2.08273C23.9102 1.4104 25.8319 1.32505 27.7833 1.47659C29.2521 1.59155 30.6721 1.8859 32.0014 2.53559C32.9162 2.98148 33.7228 3.55801 34.2699 4.44805C34.472 4.77551 34.8919 4.85911 35.2125 4.67274C35.5105 4.50031 35.6376 4.10144 35.4895 3.7705C35.4129 3.59981 35.3118 3.44305 35.1655 3.1783C35.9094 3.2532 36.5837 3.27932 37.2423 3.39602C41.8786 4.21814 45.168 6.85344 47.3076 10.9797C47.6212 11.5824 47.7536 12.2791 47.9697 12.9322C48.3025 13.9442 48.285 14.984 48.184 16.0239H48.177Z" fill="black"/>
<path d="M26.2217 3.20485C26.6695 3.20485 27.1347 3.22401 27.6452 3.26407C29.0826 3.37554 30.2238 3.65771 31.2343 4.15063C31.9992 4.52337 32.4766 4.91179 32.7815 5.40994C33.2258 6.13277 33.9976 6.56299 34.8479 6.56299C35.2817 6.56299 35.7086 6.44803 36.0849 6.22857C36.5135 5.97949 36.8393 5.6085 37.0432 5.18176C40.9616 5.90634 43.812 8.08182 45.7564 11.8319C45.8906 12.0914 45.9951 12.4554 46.1032 12.8403C46.1659 13.0615 46.2303 13.2897 46.3088 13.5249C46.4412 13.9307 46.4934 14.3661 46.5004 14.7963C46.2791 14.7302 46.0491 14.6971 45.8139 14.6971C45.2843 14.6971 44.7773 14.8695 44.3452 15.1952C43.2719 16.0069 43.0628 17.4073 43.8382 18.6004C44.6466 19.844 44.4863 20.6818 44.2563 21.274C43.8695 22.2686 43.2284 23.0506 42.352 23.5975C41.6986 24.0051 41.0087 24.2037 40.2455 24.2037C39.7159 24.2037 39.1339 24.1061 38.5154 23.9145C38.1687 23.8065 37.7993 23.648 37.4091 23.4791C37.2401 23.4059 37.071 23.3328 36.902 23.2631C36.5902 23.1342 36.2591 23.068 35.9176 23.068C34.9733 23.068 34.1335 23.5697 33.7241 24.3761C33.4139 24.9875 33.3704 25.7103 33.6021 26.3565C33.8286 26.9853 34.2834 27.4747 34.8862 27.7377C35.0151 27.7952 35.1458 27.8492 35.2747 27.9032C34.5917 28.5511 33.8147 29.2043 33.2868 29.4673L33.2101 29.5056L33.1369 29.5509C32.4748 29.9654 31.4713 30.2424 30.5304 30.4148C30.5026 30.3486 30.4712 30.2825 30.4381 30.218C30.0147 29.415 29.168 28.896 28.2811 28.896C28.086 28.896 27.8908 28.9204 27.7027 28.9709C27.2758 29.0824 26.8524 29.3088 26.5092 29.6084C24.8871 31.0244 23.5316 32.6565 22.3085 34.2102C22.0437 34.5481 21.7614 34.8912 21.4896 35.2239C21.3032 35.452 21.1168 35.6802 20.9321 35.9084L20.7962 36.0773C20.1568 36.8716 19.4999 37.6867 18.9284 38.6081C18.2141 38.103 17.268 37.8644 16.3411 37.631C15.5466 37.4307 14.557 37.1816 13.3583 36.7566C12.4906 36.4483 11.8599 35.9275 11.4313 35.1629L11.2832 34.8999L11.217 34.8424C10.9731 34.2572 10.872 33.8113 10.8912 33.4142V33.3967C10.8981 33.2957 10.9103 33.2017 10.9312 33.1059C11.1682 32.0173 10.6211 30.9844 9.60013 30.5907L9.57051 30.5803C9.2778 30.4671 8.837 30.2981 8.31082 30.2981C8.10871 30.2981 7.91009 30.3243 7.72018 30.3748C6.80721 30.6186 6.16082 31.3397 5.98659 32.2559C5.04051 31.6376 4.32965 30.7475 3.7634 29.4795C3.30518 28.4501 3.10655 27.4956 3.16057 26.5603C3.22852 25.3498 3.73204 24.3709 4.74258 23.4808C4.95514 23.2945 5.23914 23.1081 5.54055 22.9113L5.59979 22.873C6.75494 22.1188 7.13825 20.7271 6.51102 19.5653C6.08764 18.778 5.26876 18.2903 4.3767 18.2903C4.24428 18.2903 4.11186 18.3008 3.98119 18.3234C4.09444 17.9385 4.24254 17.5327 4.42896 17.1164C4.64501 16.6304 4.88371 16.1933 5.12763 15.8135C5.5754 16.4214 6.28278 16.7976 7.07901 16.7976C7.53898 16.7976 7.99198 16.667 8.38922 16.4179C9.30742 15.8432 9.72209 14.8138 9.4712 13.7321C9.03213 11.8353 9.55134 10.2503 11.1055 8.74195C12.5446 7.34504 14.2312 6.48983 16.1163 6.2007C16.4857 6.14322 16.8516 6.11535 17.2053 6.11535C18.5103 6.11535 19.6985 6.49506 20.8363 7.27712C21.3049 7.59934 21.8328 7.77004 22.3643 7.77004C23.502 7.77004 24.4655 6.97405 24.7059 5.83319C24.901 4.91353 24.5805 4.02348 23.8504 3.4278C24.577 3.27801 25.361 3.20311 26.2165 3.20311M26.2165 1.46134C24.8 1.46134 23.4044 1.639 22.0402 2.13192C21.2335 2.4228 20.4704 2.79902 19.7351 3.33026C19.8309 3.36335 19.878 3.38077 19.9285 3.39645C20.9216 3.71171 21.8677 4.12451 22.711 4.74806C22.9584 4.93095 23.0664 5.17131 23.0037 5.47438C22.9288 5.83319 22.6744 6.03001 22.366 6.03001C22.1952 6.03001 22.0088 5.97079 21.8259 5.84364C20.3989 4.86302 18.857 4.37532 17.2088 4.37532C16.7645 4.37532 16.3132 4.41016 15.855 4.48157C13.5447 4.83689 11.5585 5.8837 9.89632 7.49484C8.02508 9.30976 7.16787 11.4957 7.77767 14.1275C7.85434 14.4584 7.77593 14.7528 7.46929 14.9427C7.34384 15.021 7.21143 15.0576 7.0825 15.0576C6.76191 15.0576 6.46746 14.8312 6.39254 14.4497C6.27058 13.8227 6.20263 13.1835 6.11203 12.5547C3.60311 13.4987 1.16911 18.9975 2.16745 21.5388C2.26154 21.4517 2.34517 21.3628 2.43925 21.2914C2.95323 20.9047 3.44805 20.4867 3.99339 20.1488C4.12058 20.0687 4.25473 20.0339 4.38192 20.0339C4.63456 20.0339 4.86454 20.1749 4.98302 20.3944C5.18512 20.7706 5.04748 21.159 4.65198 21.4186C4.28958 21.6555 3.92021 21.8923 3.59614 22.1762C2.30335 23.3136 1.5228 24.7175 1.42523 26.4645C1.35205 27.7726 1.64476 29.0005 2.17616 30.1919C2.87134 31.7508 3.86097 33.0432 5.35239 33.9123C6.09461 34.346 6.88562 34.6526 7.6923 34.7431C7.6923 34.0865 7.71147 33.4473 7.68533 32.8115C7.66965 32.4231 7.86305 32.1444 8.16969 32.0608C8.21499 32.0486 8.26204 32.0434 8.31256 32.0434C8.52512 32.0434 8.76905 32.1409 8.97638 32.221C9.18023 32.2994 9.28651 32.4806 9.22902 32.7384C9.18546 32.9387 9.15932 33.1372 9.15061 33.3323V33.3358C9.11228 34.1527 9.34923 34.9295 9.68201 35.6872C9.74822 35.837 9.82663 35.945 9.912 36.0199C10.4312 36.9465 11.3058 37.8801 12.7746 38.4026C16.3934 39.688 18.1252 39.4372 18.3535 40.7557C18.4336 41.2225 18.6096 41.3741 18.803 41.3741C18.9964 41.3741 19.2072 41.2225 19.357 41.0867C19.3623 41.1023 19.3675 41.1198 19.3745 41.1354C19.4389 41.0449 19.5016 40.9578 19.5644 40.8724C19.7456 40.6286 19.9181 40.4039 20.047 40.1583C20.6551 39.007 21.4774 38.0107 22.2858 37.004C22.7458 36.4309 23.218 35.8683 23.6727 35.29C24.8941 33.7399 26.1572 32.2263 27.6504 30.9234C27.788 30.8032 27.964 30.704 28.1382 30.6587C28.1835 30.6465 28.2288 30.6413 28.2759 30.6413C28.525 30.6413 28.7707 30.8067 28.8927 31.0349C29.0268 31.2892 28.9763 31.6706 28.7794 31.8588C28.5878 32.0416 28.3926 32.221 28.1975 32.4022C28.1975 32.4039 28.2271 32.4057 28.2759 32.4057C28.8299 32.4057 32.1717 32.2106 34.0569 31.0297C35.3967 30.3626 37.585 28.1523 38.099 27.3841C38.1443 27.3162 38.1774 27.2396 38.2279 27.1455C38.0746 27.102 37.9544 27.0793 37.8411 27.0358C37.085 26.7449 36.3201 26.4697 35.5762 26.1457C35.2085 25.9855 35.0953 25.5117 35.2712 25.1669C35.3845 24.9422 35.6406 24.8133 35.9089 24.8133C36.0152 24.8133 36.1232 24.8342 36.226 24.876C36.8114 25.1181 37.3864 25.395 37.9892 25.5814C38.7454 25.8165 39.4963 25.9472 40.2351 25.9472C41.2752 25.9472 42.2893 25.6859 43.2649 25.0763C44.4828 24.3169 45.354 23.237 45.8714 21.9063C46.4568 20.3996 46.1519 18.9783 45.2912 17.6529C45.0229 17.2401 45.0508 16.8395 45.3871 16.5852C45.516 16.4876 45.6589 16.4388 45.8035 16.4388C46.03 16.4388 46.26 16.5573 46.4429 16.7889C46.6137 17.0067 46.7635 17.2453 46.8872 17.4926C47.0841 17.8828 47.2496 18.2886 47.4395 18.7119C47.8246 17.8549 48.0772 16.9823 48.1678 16.0713C48.2706 15.0315 48.2863 13.9917 47.9535 12.9797C47.7392 12.3265 47.605 11.6298 47.2914 11.0272C45.1519 6.90089 41.8624 4.26559 37.2261 3.44347C36.5675 3.32678 35.8933 3.30065 35.1493 3.22575C35.2956 3.48876 35.3967 3.64726 35.4734 3.81796C35.6215 4.14889 35.4943 4.54776 35.1963 4.72019C35.0831 4.78638 34.9594 4.81773 34.8357 4.81773C34.6074 4.81773 34.3844 4.708 34.2537 4.4955C33.7067 3.60546 32.9 3.02893 31.9853 2.58304C30.6559 1.93336 29.2359 1.639 27.7671 1.52404C27.2444 1.48398 26.7252 1.45959 26.2078 1.45959L26.2165 1.46134Z" fill="#369E49"/>
</g>
<defs>
<clipPath id="clip0_64_79">
<rect width="126" height="47" fill="white"/>
</clipPath>
</defs>
</svg>
